<?xml version="1.0" encoding="UTF-8" standalone="no"?>
<!-- Created with Inkscape (http://www.inkscape.org/) -->

<svg
   xmlns:dc="http://purl.org/dc/elements/1.1/"
   xmlns:cc="http://creativecommons.org/ns#"
   xmlns:rdf="http://www.w3.org/1999/02/22-rdf-syntax-ns#"
   xmlns:svg="http://www.w3.org/2000/svg"
   xmlns="http://www.w3.org/2000/svg"
   xmlns:sodipodi="http://sodipodi.sourceforge.net/DTD/sodipodi-0.dtd"
   xmlns:inkscape="http://www.inkscape.org/namespaces/inkscape"
   version="1.1"
   id="svg850"
   xml:space="preserve"
   width="165.81012"
   height="94.617729"
   
   sodipodi:docname="LIU logo.svg"
   inkscape:version="0.92.4 (5da689c313, 2019-01-14)"><metadata
     id="metadata856"><rdf:RDF><cc:Work
         rdf:about=""><dc:format>image/svg+xml</dc:format><dc:type
           rdf:resource="http://purl.org/dc/dcmitype/StillImage" /><dc:title /></cc:Work></rdf:RDF></metadata><defs
     id="defs854" /><sodipodi:namedview
     pagecolor="#ffffff"
     bordercolor="#666666"
     borderopacity="1"
     objecttolerance="10"
     gridtolerance="10"
     guidetolerance="10"
     inkscape:pageopacity="0"
     inkscape:pageshadow="2"
     inkscape:window-width="1066"
     inkscape:window-height="705"
     id="namedview852"
     showgrid="false"
     inkscape:zoom="3.2134989"
     inkscape:cx="149.56538"
     inkscape:cy="49.308136"
     inkscape:window-x="-8"
     inkscape:window-y="-8"
     inkscape:window-maximized="1"
     inkscape:current-layer="g858" /><g
     id="g858"
     inkscape:groupmode="layer"
     inkscape:label="ink_ext_XXXXXX"
     transform="matrix(1.3333333,0,0,-1.3333333,-28.900533,121.1896)"><g
       id="g860"
       transform="scale(0.1)"><path
         d="M 482.477,216.762 H 696.871 V 694.648 H 482.477 V 216.762"
         style="fill:#231f20;fill-opacity:1;fill-rule:nonzero;stroke:none"
         id="path862"
         inkscape:connector-curvature="0" /><path
         d="m 216.754,216.762 h 214.398 v 692.16 H 216.754 v -692.16"
         style="fill:#231f20;fill-opacity:1;fill-rule:nonzero;stroke:none"
         id="path864"
         inkscape:connector-curvature="0" /><path
         d="m 951.105,312.719 c 0,63.004 -50.96,114.566 -114.328,114.566 -62.269,0 -113.238,-51.562 -113.238,-114.566 0,-63.008 50.969,-113.43 113.238,-113.43 63.368,0 114.328,50.422 114.328,113.43"
         style="fill:#231f20;fill-opacity:1;fill-rule:nonzero;stroke:none"
         id="path866"
         inkscape:connector-curvature="0" /><path
         d="M 1226.12,694.648 V 417.305 c 0,-24.578 -10.13,-36.883 -30.38,-36.883 -20.54,0 -30.81,12.305 -30.81,36.883 V 694.648 H 951.137 V 470.684 c 0,-78.883 18.531,-140.547 55.593,-184.93 47.69,-56.887 110.63,-82.695 188.79,-82.695 78.17,0 141.1,25.808 188.8,82.695 37.06,44.383 55.58,106.047 55.58,184.93 v 223.964 h -213.78"


/></g></g></svg>