<svg version="1.1" id="Layer_1" xmlns="http://www.w3.org/2000/svg" xmlns:xlink="http://www.w3.org/1999/xlink" x="0px" y="0px"
	 width="100%" viewBox="0 0 256 256" enable-background="new 0 0 256 256" xml:space="preserve">
<path fill="#47704C" opacity="1.000000" stroke="none" 
	d="
M1.000000,93.000000 
	C1.000000,62.380630 1.000000,31.761263 1.000000,1.000000 
	C64.687492,1.000000 128.375092,1.000000 192.446030,1.346531 
	C181.216644,7.454203 169.603912,13.215343 157.631104,19.015553 
	C154.040054,20.749092 150.809067,22.443563 147.193054,24.122486 
	C143.540833,25.798855 140.273636,27.490778 136.644104,29.149216 
	C132.197052,31.126444 128.112335,33.137157 123.665222,35.150150 
	C118.541969,37.515450 113.781113,39.878468 108.678780,42.302826 
	C104.563942,44.317139 100.790581,46.270115 96.657715,48.206566 
	C93.200531,49.807877 90.102852,51.425713 86.646141,53.061092 
	C83.807945,54.339352 81.328796,55.600067 78.487762,56.914444 
	C74.751877,58.642918 71.377869,60.317734 67.647636,62.046261 
	C63.873085,63.817459 60.454762,65.534943 56.689926,67.301643 
	C51.233105,69.901772 46.122791,72.452682 40.653145,75.057877 
	C35.854450,77.249451 31.415083,79.386734 26.684078,81.625877 
	C24.269199,82.884056 22.145956,84.040375 19.663376,85.167969 
	C16.538958,86.492630 13.773877,87.846024 10.671535,89.279556 
	C7.222851,90.573135 4.111426,91.786568 1.000000,93.000000 
z"/>
<path fill="#47704C" opacity="1.000000" stroke="none" 
	d="
M230.000000,257.000000 
	C153.752579,257.000000 77.505165,257.000000 1.000000,257.000000 
	C1.000000,203.979385 1.000000,150.958344 1.294472,97.653412 
	C2.789267,99.917206 3.989591,102.464897 5.205000,105.374336 
	C6.567557,109.149254 7.915029,112.562439 9.367825,116.308960 
	C10.975078,120.093727 12.477006,123.545151 14.026808,127.365021 
	C15.673206,131.501053 17.271732,135.268631 18.966984,139.394592 
	C20.425903,143.156418 21.788099,146.559875 23.253765,150.306763 
	C24.871983,154.109726 26.386728,157.569260 27.949875,161.404938 
	C29.711544,166.171875 31.424810,170.562653 33.241348,175.298553 
	C35.240807,180.103302 37.136986,184.562973 39.096092,189.381958 
	C41.087452,194.177338 43.015892,198.613388 44.991322,203.423141 
	C45.998344,206.442383 47.081841,209.050720 47.892719,211.741211 
	C49.585976,217.359421 52.239376,221.794739 59.410805,221.793304 
	C62.581558,222.417419 65.347588,222.944550 68.106201,223.508011 
	C109.804222,232.024628 151.507339,240.516495 193.194794,249.084518 
	C205.486252,251.610779 217.732849,254.355438 230.000000,257.000000 
z"/>
<path fill="#476F4C" opacity="1.000000" stroke="none" 
	d="
M196.000000,1.000000 
	C216.302505,1.000000 236.605026,1.000000 257.000000,1.000000 
	C257.000000,76.687538 257.000000,152.375107 256.709167,228.236359 
	C255.583237,219.900558 254.769897,211.388840 253.907104,202.882156 
	C252.963776,193.581482 251.974716,184.285477 250.990631,174.529358 
	C250.315704,167.052078 249.655716,160.032852 248.970779,152.658676 
	C248.872391,151.835571 248.798965,151.367401 248.777802,150.477417 
	C248.555710,147.366119 248.281357,144.676682 247.987274,141.536713 
	C247.349915,134.909302 246.732269,128.732407 246.139236,122.121857 
	C245.420456,114.126907 244.677063,106.565590 243.937469,98.657303 
	C243.882233,97.852493 243.823166,97.394646 243.817566,96.513824 
	C243.574249,93.423058 243.277451,90.755264 242.973648,87.626633 
	C242.360901,80.388954 241.755188,73.612137 241.115021,66.384735 
	C240.260803,60.626591 239.441010,55.319012 238.471634,49.731400 
	C236.071274,46.952671 233.820496,44.453972 231.543671,41.806839 
	C231.411835,41.464264 231.248566,41.360340 230.836868,41.046356 
	C222.032150,30.941523 213.465256,21.095106 204.774017,11.359696 
	C202.380508,8.678649 199.615814,6.328990 197.006485,3.514261 
	C196.661026,2.467498 196.330505,1.733749 196.000000,1.000000 
z"/>
<path fill="#46154F" opacity="1.000000" stroke="none" 
	d="
M230.428467,257.000000 
	C217.732849,254.355438 205.486252,251.610779 193.194794,249.084518 
	C151.507339,240.516495 109.804222,232.024628 68.106201,223.508011 
	C65.347588,222.944550 62.581558,222.417419 59.769104,221.623672 
	C65.665558,221.662781 71.632454,221.730545 77.554436,222.281189 
	C96.716232,224.062943 115.861526,226.022064 135.454620,227.930679 
	C140.840607,228.382401 145.788483,228.781662 150.729126,229.256317 
	C170.155624,231.122620 189.579834,233.012604 209.441223,234.921295 
	C215.497406,235.516251 221.111404,236.151779 226.738449,236.635742 
	C235.836716,237.418304 244.943542,238.101212 254.414215,238.869415 
	C255.521133,238.941727 256.260559,238.970871 257.000000,239.000000 
	C257.000000,239.000000 257.000000,239.500000 256.698669,239.900009 
	C249.598221,245.866684 242.799118,251.433334 236.000000,257.000000 
	C234.285645,257.000000 232.571289,257.000000 230.428467,257.000000 
z"/>
<path fill="#E3BAEA" opacity="1.000000" stroke="none" 
	d="
M195.625000,1.000000 
	C196.330505,1.733749 196.661026,2.467498 196.747345,3.735492 
	C198.399902,12.157334 200.296631,20.044933 201.720734,27.945011 
	C195.703049,27.334957 190.129852,26.895262 184.619675,26.046385 
	C176.656006,24.819532 168.719925,23.385859 160.821487,21.795139 
	C159.732971,21.575918 158.927628,19.950752 157.991180,18.976484 
	C169.603912,13.215343 181.216644,7.454203 192.914688,1.346531 
	C193.750000,1.000000 194.500000,1.000000 195.625000,1.000000 
z"/>
<path fill="#AE77BA" opacity="1.000000" stroke="none" 
	d="
M1.000000,93.333328 
	C4.111426,91.786568 7.222851,90.573135 10.720526,89.640137 
	C12.399908,94.330376 16.462053,93.323090 19.433931,93.816605 
	C36.299927,96.617409 53.214088,99.127655 70.109200,101.753883 
	C76.833122,102.799065 83.547493,103.905746 90.270981,104.953758 
	C109.960785,108.022881 129.652985,111.076591 149.209473,114.413483 
	C148.168030,115.505737 147.261337,116.320862 145.937515,117.035461 
	C138.319260,115.783775 131.118805,114.628326 123.916840,113.482338 
	C108.366341,111.007896 92.834999,108.403458 77.258904,106.102119 
	C59.230164,103.438408 41.172733,100.959473 23.102631,98.592110 
	C18.774395,98.025070 14.346714,98.217110 9.613371,97.975861 
	C6.507982,96.927780 3.753991,95.963890 1.000000,95.000000 
	C1.000000,94.555557 1.000000,94.111107 1.000000,93.333328 
z"/>
<path fill="#782D89" opacity="1.000000" stroke="none" 
	d="
M257.000000,238.562622 
	C256.260559,238.970871 255.521133,238.941727 254.270370,238.577927 
	C248.509277,235.158142 243.259506,232.073013 237.805374,228.717743 
	C236.244003,227.549927 234.910217,226.614578 233.525925,225.761200 
	C227.690552,222.163879 221.840118,218.591019 216.289886,214.871704 
	C218.823608,215.134506 221.089508,215.423187 223.297028,215.954407 
	C232.876404,218.259644 242.438751,220.635666 252.237396,223.251541 
	C253.978348,226.344757 255.489166,229.172379 257.000000,232.000000 
	C257.000000,234.041748 257.000000,236.083496 257.000000,238.562622 
z"/>
<path fill="#813091" opacity="1.000000" stroke="none" 
	d="
M257.000000,231.625000 
	C255.489166,229.172379 253.978348,226.344757 252.222626,222.849731 
	C250.985535,218.455902 249.993378,214.729477 248.964081,210.611847 
	C247.956894,206.813751 246.986832,203.406876 246.008484,199.590515 
	C245.328003,196.119308 244.655823,193.057587 243.913605,189.639282 
	C243.580200,187.856613 243.316788,186.430527 243.444244,185.017395 
	C250.801285,185.920273 250.907974,185.829697 250.969849,178.972336 
	C250.981827,177.644028 250.993668,176.315735 251.005569,174.987427 
	C251.974716,184.285477 252.963776,193.581482 253.907104,202.882156 
	C254.769897,211.388840 255.583237,219.900558 256.709167,228.705017 
	C257.000000,229.750000 257.000000,230.500000 257.000000,231.625000 
z"/>
<path fill="#47704C" opacity="1.000000" stroke="none" 
	d="
M236.468918,257.000000 
	C242.799118,251.433334 249.598221,245.866684 256.698669,240.150009 
	C257.000000,245.600510 257.000000,251.201004 257.000000,257.000000 
	C250.313553,257.000000 243.625702,257.000000 236.468918,257.000000 
z"/>
<path fill="#9756A5" opacity="1.000000" stroke="none" 
	d="
M1.000000,95.333328 
	C3.753991,95.963890 6.507982,96.927780 9.868694,98.201569 
	C13.941204,100.046448 17.406994,101.581429 21.101318,103.365173 
	C25.565777,106.398674 29.801702,109.183411 33.617516,111.968811 
	C23.861576,109.650528 14.525745,107.331558 5.189915,105.012589 
	C3.989591,102.464897 2.789267,99.917206 1.294472,97.184753 
	C1.000000,96.555557 1.000000,96.111107 1.000000,95.333328 
z"/>
<path fill="#BF8CC9" opacity="1.000000" stroke="none" 
	d="
M41.012474,75.003593 
	C46.122791,72.452682 51.233105,69.901772 56.810455,67.623077 
	C59.449177,68.892128 61.528988,70.375603 63.807648,70.805779 
	C77.295944,73.352188 90.835365,75.626358 104.347527,78.048286 
	C113.155960,79.627113 121.933746,81.379128 130.749420,82.914864 
	C144.940582,85.387047 159.151703,87.744667 173.202469,90.456520 
	C170.489426,93.227486 167.928314,95.692604 164.988953,97.999985 
	C162.520126,97.287048 160.459808,96.534683 158.334091,96.208466 
	C144.034836,94.014130 129.704117,92.020988 115.417274,89.750648 
	C94.879120,86.486916 74.344360,83.185638 53.867973,79.562286 
	C49.452183,78.780907 45.290958,76.560921 41.012474,75.003593 
z"/>
<path fill="#B984C4" opacity="1.000000" stroke="none" 
	d="
M40.653145,75.057877 
	C45.290958,76.560921 49.452183,78.780907 53.867973,79.562286 
	C74.344360,83.185638 94.879120,86.486916 115.417274,89.750648 
	C129.704117,92.020988 144.034836,94.014130 158.334091,96.208466 
	C160.459808,96.534683 162.520126,97.287048 164.838806,98.300598 
	C163.173401,100.559746 161.279877,102.360535 158.944092,104.129257 
	C154.745880,103.383156 151.007095,102.558006 147.230957,101.974754 
	C132.629608,99.719521 118.008698,97.590637 103.409630,95.321091 
	C87.979576,92.922371 72.532455,90.607437 57.157307,87.890831 
	C47.037716,86.102829 37.032272,83.668785 26.975716,81.524033 
	C31.415083,79.386734 35.854450,77.249451 40.653145,75.057877 
z"/>
<path fill="#D7AADF" opacity="1.000000" stroke="none" 
	d="
M109.020256,42.241486 
	C113.781113,39.878468 118.541969,37.515450 123.830353,35.453300 
	C125.981071,36.488853 127.536476,37.583298 129.237701,37.903938 
	C152.604584,42.308064 175.981873,46.659634 199.386368,50.858139 
	C202.193344,51.361675 205.174911,50.891949 208.261841,50.925232 
	C208.448135,50.977135 208.823746,51.071117 208.844482,51.474640 
	C209.655487,55.563126 210.445755,59.248085 210.825714,62.910969 
	C202.454742,61.319000 194.522278,59.585175 186.528152,58.209896 
	C162.382156,54.055912 138.201462,50.102043 114.072868,45.851276 
	C112.233765,45.527279 110.697357,43.485039 109.020256,42.241486 
z"/>
<path fill="#D2A4DB" opacity="1.000000" stroke="none" 
	d="
M108.678780,42.302826 
	C110.697357,43.485039 112.233765,45.527279 114.072868,45.851276 
	C138.201462,50.102043 162.382156,54.055912 186.528152,58.209896 
	C194.522278,59.585175 202.454742,61.319000 211.029877,63.208717 
	C212.088318,65.683861 212.532303,67.839188 212.544800,69.994247 
	C210.301514,69.805611 208.473419,69.714272 206.680527,69.413239 
	C194.256210,67.327148 181.845016,65.162605 169.418594,63.089352 
	C146.850052,59.323959 124.263290,55.665192 101.721748,51.745613 
	C100.001419,51.446480 98.578423,49.437363 97.017220,48.223091 
	C100.790581,46.270115 104.563942,44.317139 108.678780,42.302826 
z"/>
<path fill="#C492CE" opacity="1.000000" stroke="none" 
	d="
M173.354401,90.150681 
	C159.151703,87.744667 144.940582,85.387047 130.749420,82.914864 
	C121.933746,81.379128 113.155960,79.627113 104.347527,78.048286 
	C90.835365,75.626358 77.295944,73.352188 63.807648,70.805779 
	C61.528988,70.375603 59.449177,68.892128 57.156963,67.573868 
	C60.454762,65.534943 63.873085,63.817459 67.800476,62.358429 
	C70.842690,63.737286 73.278046,65.356239 75.928963,65.876221 
	C81.784164,67.024719 87.772362,67.474762 93.662811,68.467766 
	C112.153687,71.584946 130.642166,74.723099 149.095917,78.050911 
	C159.216553,79.875999 169.265427,82.099083 179.199127,84.444580 
	C177.152542,86.547874 175.253464,88.349281 173.354401,90.150681 
z"/>
<path fill="#B580C1" opacity="1.000000" stroke="none" 
	d="
M26.684078,81.625885 
	C37.032272,83.668785 47.037716,86.102829 57.157307,87.890831 
	C72.532455,90.607437 87.979576,92.922371 103.409630,95.321091 
	C118.008698,97.590637 132.629608,99.719521 147.230957,101.974754 
	C151.007095,102.558006 154.745880,103.383156 158.792892,104.423950 
	C157.500351,106.212738 155.916733,107.674767 153.902222,109.077103 
	C147.750778,108.006866 142.048981,106.871544 136.306198,106.009239 
	C119.213303,103.442642 102.095276,101.043198 85.004036,98.465897 
	C66.605049,95.691391 48.197903,92.948875 29.861475,89.801224 
	C26.419830,89.210419 23.294184,86.778824 20.022715,85.196686 
	C22.145956,84.040375 24.269199,82.884056 26.684078,81.625885 
z"/>
<path fill="#CF9FD8" opacity="1.000000" stroke="none" 
	d="
M96.657715,48.206562 
	C98.578423,49.437363 100.001419,51.446480 101.721748,51.745613 
	C124.263290,55.665192 146.850052,59.323959 169.418594,63.089352 
	C181.845016,65.162605 194.256210,67.327148 206.680527,69.413239 
	C208.473419,69.714272 210.301514,69.805611 212.708771,70.161682 
	C213.495102,70.578644 213.714569,70.799507 213.966064,71.385521 
	C214.342621,73.840454 214.715759,75.901817 214.632446,77.972626 
	C207.172867,77.318672 200.169769,76.655281 193.101440,75.650635 
	C192.906036,74.157936 192.775848,73.006493 192.612534,71.562073 
	C191.145569,72.731316 190.135864,73.536095 188.856781,74.061729 
	C187.239777,73.208794 185.941849,72.353943 184.536697,72.105392 
	C172.634598,70.000145 160.700241,68.076752 148.800034,65.961296 
	C129.713669,62.568413 110.638336,59.111298 91.584152,55.543453 
	C89.958786,55.239109 88.526932,53.901279 87.005180,53.043556 
	C90.102852,51.425713 93.200531,49.807877 96.657715,48.206562 
z"/>
<path fill="#B17ABD" opacity="1.000000" stroke="none" 
	d="
M19.663376,85.167961 
	C23.294184,86.778824 26.419830,89.210419 29.861475,89.801224 
	C48.197903,92.948875 66.605049,95.691391 85.004036,98.465897 
	C102.095276,101.043198 119.213303,103.442642 136.306198,106.009239 
	C142.048981,106.871544 147.750778,108.006866 153.754883,109.372192 
	C152.473709,111.196762 150.908966,112.666542 149.344238,114.136330 
	C129.652985,111.076591 109.960785,108.022881 90.270981,104.953758 
	C83.547493,103.905746 76.833122,102.799065 70.109200,101.753883 
	C53.214088,99.127655 36.299927,96.617409 19.433931,93.816605 
	C16.462053,93.323090 12.399908,94.330376 11.057785,89.559998 
	C13.773877,87.846024 16.538958,86.492630 19.663376,85.167961 
z"/>
<path fill="#C897D2" opacity="1.000000" stroke="none" 
	d="
M179.346649,84.142700 
	C169.265427,82.099083 159.216553,79.875999 149.095917,78.050911 
	C130.642166,74.723099 112.153687,71.584946 93.662811,68.467766 
	C87.772362,67.474762 81.784164,67.024719 75.928963,65.876221 
	C73.278046,65.356239 70.842690,63.737286 68.156708,62.304718 
	C71.377869,60.317734 74.751877,58.642918 78.739548,57.173206 
	C81.648575,58.571827 83.824814,60.342499 86.262650,60.845627 
	C92.431335,62.118717 98.749283,62.649605 104.950272,63.788933 
	C119.315834,66.428375 133.624817,69.378494 147.999985,71.962128 
	C160.415817,74.193611 172.891281,76.093201 185.193634,78.441612 
	C183.146805,80.543373 181.246735,82.343033 179.346649,84.142700 
z"/>
<path fill="#DBAFE3" opacity="1.000000" stroke="none" 
	d="
M208.075531,50.873337 
	C205.174911,50.891949 202.193344,51.361675 199.386368,50.858139 
	C175.981873,46.659634 152.604584,42.308064 129.237701,37.903938 
	C127.536476,37.583298 125.981071,36.488853 124.192749,35.451015 
	C128.112335,33.137157 132.197052,31.126444 136.713867,29.492668 
	C142.171188,31.565529 147.084518,33.827946 152.243439,34.847244 
	C165.728287,37.511581 179.305145,39.727795 192.878906,41.914207 
	C197.199112,42.610092 201.624878,42.650524 206.226257,43.284435 
	C206.991959,46.009773 207.533752,48.441555 208.075531,50.873337 
z"/>
<path fill="#CC9BD5" opacity="1.000000" stroke="none" 
	d="
M185.340393,78.139511 
	C172.891281,76.093201 160.415817,74.193611 147.999985,71.962128 
	C133.624817,69.378494 119.315834,66.428375 104.950272,63.788933 
	C98.749283,62.649605 92.431335,62.118717 86.262650,60.845627 
	C83.824814,60.342499 81.648575,58.571827 79.101425,57.119545 
	C81.328796,55.600067 83.807945,54.339352 86.646141,53.061096 
	C88.526932,53.901279 89.958786,55.239109 91.584152,55.543453 
	C110.638336,59.111298 129.713669,62.568413 148.800034,65.961296 
	C160.700241,68.076752 172.634598,70.000145 184.536697,72.105392 
	C185.941849,72.353943 187.239777,73.208794 188.737534,74.339508 
	C187.705246,75.977455 186.522827,77.058487 185.340393,78.139511 
z"/>
<path fill="#DEB3E6" opacity="1.000000" stroke="none" 
	d="
M206.002350,42.990879 
	C201.624878,42.650524 197.199112,42.610092 192.878906,41.914207 
	C179.305145,39.727795 165.728287,37.511581 152.243439,34.847244 
	C147.084518,33.827946 142.171188,31.565529 137.076202,29.526150 
	C140.273636,27.490778 143.540833,25.798855 147.420181,24.475620 
	C150.386688,25.873962 152.649078,27.343084 155.111084,27.858391 
	C166.735229,30.291351 178.388657,32.608044 190.085785,34.657051 
	C194.770691,35.477718 199.594727,35.504185 204.541107,36.199509 
	C205.151978,38.668205 205.577164,40.829540 206.002350,42.990879 
z"/>
<path fill="#E0B6E8" opacity="1.000000" stroke="none" 
	d="
M204.355423,35.892155 
	C199.594727,35.504185 194.770691,35.477718 190.085785,34.657051 
	C178.388657,32.608044 166.735229,30.291351 155.111084,27.858391 
	C152.649078,27.343084 150.386688,25.873962 147.805206,24.491173 
	C150.809067,22.443563 154.040054,20.749092 157.631104,19.015553 
	C158.927628,19.950752 159.732971,21.575918 160.821487,21.795139 
	C168.719925,23.385859 176.656006,24.819532 184.619675,26.046385 
	C190.129852,26.895262 195.703049,27.334957 201.946915,28.249947 
	C203.215622,30.992321 203.785522,33.442238 204.355423,35.892155 
z"/>
<path fill="#661679" opacity="1.000000" stroke="none" 
	d="
M209.004898,234.893829 
	C189.579834,233.012604 170.155624,231.122620 150.729126,229.256317 
	C145.788483,228.781662 140.840607,228.382401 135.430145,227.563202 
	C133.529343,225.839447 132.303452,223.733704 130.628235,223.277328 
	C104.230240,216.085892 77.787849,209.054977 51.304058,202.186127 
	C49.387695,201.689087 47.073532,202.725815 44.944328,203.049438 
	C43.015892,198.613388 41.087452,194.177338 39.446320,189.231339 
	C41.348198,188.617676 43.074234,188.090347 44.558762,188.480927 
	C52.522934,190.576309 60.426956,192.900314 68.278008,195.423676 
	C69.225090,196.135910 70.227646,196.886032 71.270081,196.946304 
	C74.843018,197.152878 78.429932,197.117477 82.176758,197.469513 
	C84.898209,198.843719 87.368622,200.243607 90.023529,200.953461 
	C127.871292,211.072632 165.752777,221.065826 203.585907,231.238968 
	C205.575943,231.774078 207.206818,233.644852 209.004898,234.893829 
z"/>
<path fill="#611175" opacity="1.000000" stroke="none" 
	d="
M44.991322,203.423126 
	C47.073532,202.725815 49.387695,201.689087 51.304058,202.186127 
	C77.787849,209.054977 104.230240,216.085892 130.628235,223.277328 
	C132.303452,223.733704 133.529343,225.839447 134.988708,227.545380 
	C115.861526,226.022064 96.716232,224.062943 77.554436,222.281189 
	C71.632454,221.730545 65.665558,221.662781 59.360931,221.543549 
	C52.239376,221.794739 49.585976,217.359421 47.892719,211.741211 
	C47.081841,209.050720 45.998344,206.442383 44.991322,203.423126 
z"/>
<path fill="#843C94" opacity="1.000000" stroke="none" 
	d="
M18.870258,139.036209 
	C17.271732,135.268631 15.673206,131.501053 14.446464,127.370560 
	C16.456039,127.237869 18.135439,127.308502 19.725185,127.722992 
	C35.459961,131.825409 51.151894,136.095413 66.915123,140.084152 
	C75.566200,142.273224 84.330391,144.015305 93.387238,146.047119 
	C98.917397,148.835785 104.103889,151.536285 109.118477,154.517136 
	C107.079414,156.579697 105.212265,158.361877 102.935684,160.087524 
	C80.980522,154.289490 59.457851,148.459137 37.874641,142.862213 
	C31.629116,141.242645 25.209866,140.292984 18.870258,139.036209 
z"/>
<path fill="#7E348E" opacity="1.000000" stroke="none" 
	d="
M18.966984,139.394592 
	C25.209866,140.292984 31.629116,141.242645 37.874641,142.862213 
	C59.457851,148.459137 80.980522,154.289490 102.757019,160.378998 
	C100.445450,163.201660 97.903114,165.676285 94.961472,168.052643 
	C77.067207,163.309387 59.592327,158.586655 42.066563,154.060959 
	C35.824654,152.449112 29.459299,151.315323 23.150293,149.963318 
	C21.788099,146.559875 20.425903,143.156418 18.966984,139.394592 
z"/>
<path fill="#8A449A" opacity="1.000000" stroke="none" 
	d="
M93.043579,145.958954 
	C84.330391,144.015305 75.566200,142.273224 66.915123,140.084152 
	C51.151894,136.095413 35.459961,131.825409 19.725185,127.722992 
	C18.135439,127.308502 16.456039,127.237869 14.398590,127.002121 
	C12.477006,123.545151 10.975078,120.093727 9.766115,116.319000 
	C12.172526,116.361115 14.324041,116.579605 16.393229,117.115799 
	C29.686102,120.560402 42.950047,124.117256 56.254375,127.516357 
	C58.082973,127.983551 60.082748,127.780731 62.330677,127.923576 
	C63.095486,127.991837 63.532894,128.024628 64.212799,128.289337 
	C68.966545,131.020050 73.477783,133.518845 78.235672,136.248047 
	C82.988411,138.985352 87.494492,141.492264 92.124420,144.247742 
	C92.513367,144.983856 92.778473,145.471405 93.043579,145.958954 
z"/>
<path fill="#782D89" opacity="1.000000" stroke="none" 
	d="
M23.253765,150.306763 
	C29.459299,151.315323 35.824654,152.449112 42.066563,154.060959 
	C59.592327,158.586655 77.067207,163.309387 94.777061,168.341232 
	C92.437607,171.194794 89.883247,173.661530 86.970467,175.975189 
	C76.400497,172.959152 66.239990,169.894577 55.962299,167.292877 
	C46.675240,164.941940 37.260120,163.096924 27.901474,161.028793 
	C26.386728,157.569260 24.871983,154.109726 23.253765,150.306763 
z"/>
<path fill="#722684" opacity="1.000000" stroke="none" 
	d="
M27.949875,161.404938 
	C37.260120,163.096924 46.675240,164.941940 55.962299,167.292877 
	C66.239990,169.894577 76.400497,172.959152 86.784637,176.263809 
	C84.001404,179.601578 81.045563,182.497681 77.842026,185.113739 
	C76.605148,184.245468 75.686081,183.399857 74.616058,183.108383 
	C62.441460,179.792145 50.266151,176.470596 38.021988,173.428360 
	C36.607647,173.076935 34.776161,174.404388 33.138077,174.953445 
	C31.424810,170.562653 29.711544,166.171875 27.949875,161.404938 
z"/>
<path fill="#6C1D7E" opacity="1.000000" stroke="none" 
	d="
M33.241348,175.298553 
	C34.776161,174.404388 36.607647,173.076935 38.021988,173.428360 
	C50.266151,176.470596 62.441460,179.792145 74.616058,183.108383 
	C75.686081,183.399857 76.605148,184.245468 77.675056,185.377594 
	C74.621109,188.996109 71.486427,192.070724 68.351746,195.145355 
	C60.426956,192.900314 52.522934,190.576309 44.558762,188.480927 
	C43.074234,188.090347 41.348198,188.617676 39.383396,188.872009 
	C37.136986,184.562973 35.240807,180.103302 33.241348,175.298553 
z"/>
<path fill="#904C9F" opacity="1.000000" stroke="none" 
	d="
M62.003273,127.888107 
	C60.082748,127.780731 58.082973,127.983551 56.254375,127.516357 
	C42.950047,124.117256 29.686102,120.560402 16.393229,117.115799 
	C14.324041,116.579605 12.172526,116.361115 9.660791,115.985664 
	C7.915029,112.562439 6.567557,109.149254 5.205000,105.374329 
	C14.525745,107.331558 23.861576,109.650528 33.947018,112.044846 
	C35.778851,112.444710 36.861076,112.769234 38.159065,113.351540 
	C42.238110,115.748482 46.101379,117.887634 50.212425,120.257484 
	C54.307888,122.954826 58.155582,125.421471 62.003273,127.888107 
z"/>
<path fill="#A412C1" opacity="1.000000" stroke="none" 
	d="
M204.541107,36.199509 
	C203.785522,33.442238 203.215622,30.992321 202.419556,28.237469 
	C200.296631,20.044933 198.399902,12.157334 196.762299,4.048506 
	C199.615814,6.328990 202.380508,8.678649 204.774017,11.359696 
	C213.465256,21.095106 222.032150,30.941523 230.917419,41.155342 
	C231.303833,41.706516 231.430771,41.836739 231.569717,41.955276 
	C233.820496,44.453972 236.071274,46.952671 238.091690,49.832012 
	C228.182129,50.498810 218.502945,50.784962 208.823746,51.071117 
	C208.823746,51.071117 208.448135,50.977135 208.261841,50.925236 
	C207.533752,48.441555 206.991959,46.009773 206.226257,43.284435 
	C205.577164,40.829540 205.151978,38.668205 204.541107,36.199509 
z"/>
<path fill="#9D1AB5" opacity="1.000000" stroke="none" 
	d="
M215.088913,77.963181 
	C214.715759,75.901817 214.342621,73.840454 214.377258,71.299026 
	C222.209488,70.585670 229.636902,70.131996 237.056931,70.231201 
	C239.891846,70.269112 241.075333,69.536476 241.149445,66.835312 
	C241.755188,73.612137 242.360901,80.388954 242.961884,88.050232 
	C243.226120,91.602051 243.495117,94.269432 243.764099,96.936806 
	C243.823166,97.394646 243.882233,97.852493 243.473663,98.656891 
	C235.634735,98.675949 228.263458,98.348450 220.699097,97.973633 
	C220.506012,97.926315 220.116806,97.842957 220.088501,97.456863 
	C219.339066,94.378654 218.617935,91.686531 217.895447,88.632797 
	C217.794739,87.801010 217.695358,87.330833 217.561890,86.657272 
	C217.423859,86.189896 217.262939,85.967018 217.039978,85.406723 
	C216.386276,82.673187 215.737595,80.318184 215.088913,77.963181 
z"/>
<path fill="#9620AD" opacity="1.000000" stroke="none" 
	d="
M220.892166,98.020958 
	C228.263458,98.348450 235.634735,98.675949 243.469849,99.003860 
	C244.677063,106.565590 245.420456,114.126907 246.109207,122.574593 
	C246.296585,127.873726 243.919922,129.233231 239.876129,129.031403 
	C236.244553,128.850143 232.597412,128.980606 228.796310,128.811279 
	C228.425369,128.425613 228.197250,128.222473 227.933258,127.644699 
	C226.958572,123.806541 226.001740,120.363243 224.984039,116.545403 
	C224.283463,113.775032 223.643723,111.379204 222.986694,108.588211 
	C222.277008,104.802353 221.584579,101.411652 220.892166,98.020958 
z"/>
<path fill="#A115BC" opacity="1.000000" stroke="none" 
	d="
M241.115021,66.384735 
	C241.075333,69.536476 239.891846,70.269112 237.056931,70.231201 
	C229.636902,70.131996 222.209488,70.585670 214.373825,70.905457 
	C213.714569,70.799507 213.495102,70.578644 213.140259,70.161934 
	C212.532303,67.839188 212.088318,65.683861 211.440186,63.230793 
	C210.445755,59.248085 209.655487,55.563126 208.844482,51.474640 
	C218.502945,50.784962 228.182129,50.498810 238.241272,50.112045 
	C239.441010,55.319012 240.260803,60.626591 241.115021,66.384735 
z"/>
<path fill="#9026A5" opacity="1.000000" stroke="none" 
	d="
M228.957138,128.973557 
	C232.597412,128.980606 236.244553,128.850143 239.876129,129.031403 
	C243.919922,129.233231 246.296585,127.873726 246.084595,123.008224 
	C246.732269,128.732407 247.349915,134.909302 247.974365,141.968246 
	C248.229294,145.533264 248.477417,148.216263 248.725555,150.899246 
	C248.798965,151.367401 248.872391,151.835571 248.911453,153.017212 
	C247.702789,154.980988 246.707458,156.998779 245.317215,157.322922 
	C242.356308,158.013260 239.190414,157.824234 236.047791,157.674225 
	C235.639740,156.568542 235.292419,155.784225 234.928253,154.625122 
	C234.282394,152.156845 233.653427,150.063400 232.959885,147.610794 
	C232.545959,145.830536 232.196625,144.409424 231.846802,142.615784 
	C231.231537,140.160187 230.616714,138.077118 229.943832,135.606750 
	C229.576233,133.137482 229.266678,131.055511 228.957138,128.973557 
z"/>
<path fill="#8A2C9C" opacity="1.000000" stroke="none" 
	d="
M236.108521,157.995590 
	C239.190414,157.824234 242.356308,158.013260 245.317215,157.322922 
	C246.707458,156.998779 247.702789,154.980988 248.936417,153.372162 
	C249.655716,160.032852 250.315704,167.052078 250.990631,174.529358 
	C250.993668,176.315735 250.981827,177.644028 250.969849,178.972336 
	C250.907974,185.829697 250.801285,185.920273 243.303894,184.704407 
	C242.214859,182.908112 241.657028,181.437714 241.064545,179.574020 
	C240.345627,176.450394 239.661392,173.720078 238.909836,170.625092 
	C238.244553,168.172256 237.646576,166.084061 237.032288,163.612976 
	C236.713470,161.485260 236.410995,159.740417 236.108521,157.995590 
z"/>
<path fill="#9620AD" opacity="1.000000" stroke="none" 
	d="
M243.817581,96.513824 
	C243.495117,94.269432 243.226120,91.602051 242.968903,88.511078 
	C243.277451,90.755264 243.574249,93.423058 243.817581,96.513824 
z"/>
<path fill="#8A2C9C" opacity="1.000000" stroke="none" 
	d="
M248.777817,150.477417 
	C248.477417,148.216263 248.229294,145.533264 247.994080,142.418762 
	C248.281357,144.676682 248.555710,147.366119 248.777817,150.477417 
z"/>
<path fill="#A115BC" opacity="1.000000" stroke="none" 
	d="
M231.543671,41.806839 
	C231.430771,41.836739 231.303833,41.706516 231.108337,41.455624 
	C231.248566,41.360340 231.411835,41.464264 231.543671,41.806839 
z"/>
<path fill="#6C1D7E" opacity="1.000000" stroke="none" 
	d="
M209.441223,234.921295 
	C207.206818,233.644852 205.575943,231.774078 203.585907,231.238968 
	C165.752777,221.065826 127.871292,211.072632 90.023529,200.953461 
	C87.368622,200.243607 84.898209,198.843719 82.635788,197.424133 
	C89.184135,197.284424 95.513054,197.719177 100.094574,191.962021 
	C103.359154,193.239212 106.272987,194.473328 109.300598,195.280884 
	C142.374039,204.102524 175.456924,212.889130 208.556763,221.611237 
	C218.342850,224.189941 228.190369,226.535507 238.009735,228.987915 
	C243.259506,232.073013 248.509277,235.158142 253.902893,238.534729 
	C244.943542,238.101212 235.836716,237.418304 226.738449,236.635742 
	C221.111404,236.151779 215.497406,235.516251 209.441223,234.921295 
z"/>
<path fill="#252023" opacity="1.000000" stroke="none" 
	d="
M99.796654,191.720856 
	C95.513054,197.719177 89.184135,197.284424 82.470551,197.128952 
	C78.429932,197.117477 74.843018,197.152878 71.270081,196.946304 
	C70.227646,196.886032 69.225090,196.135910 68.278000,195.423676 
	C71.486427,192.070724 74.621109,188.996109 77.922760,185.657639 
	C81.045563,182.497681 84.001404,179.601578 87.143066,176.416870 
	C89.883247,173.661530 92.437607,171.194794 95.176376,168.439484 
	C97.903114,165.676285 100.445450,163.201660 103.166458,160.435547 
	C105.212265,158.361877 107.079414,156.579697 109.398849,154.343353 
	C112.351440,151.301056 114.851753,148.712891 117.627411,145.973114 
	C119.367775,144.267242 120.832802,142.712982 122.577065,141.013382 
	C124.298271,139.363770 125.740234,137.859467 127.474152,136.190933 
	C129.294189,134.409119 130.822266,132.791519 132.620209,131.033813 
	C133.983643,129.707520 135.077209,128.521347 136.467377,127.173782 
	C138.630646,125.056969 140.497299,123.101532 142.641968,120.999252 
	C144.064865,119.613602 145.209747,118.374786 146.354630,117.135979 
	C147.261337,116.320862 148.168030,115.505737 149.209473,114.413467 
	C150.908966,112.666542 152.473709,111.196762 154.185791,109.431885 
	C155.916733,107.674767 157.500351,106.212738 159.235168,104.456024 
	C161.279877,102.360535 163.173401,100.559746 165.217041,98.458336 
	C167.928314,95.692604 170.489426,93.227486 173.202469,90.456520 
	C175.253464,88.349281 177.152542,86.547874 179.199127,84.444588 
	C181.246735,82.343033 183.146805,80.543373 185.193634,78.441612 
	C186.522827,77.058487 187.705246,75.977455 189.006912,74.618652 
	C190.135864,73.536095 191.145569,72.731316 192.612534,71.562073 
	C192.775848,73.006493 192.906036,74.157936 193.028992,76.100342 
	C193.071381,79.925621 193.120987,82.959953 193.100189,86.439911 
	C193.078262,89.587624 193.126755,92.289703 193.103958,95.437332 
	C193.080536,98.585083 193.128387,101.287292 193.105698,104.439484 
	C193.081085,107.921906 193.127029,110.954330 193.102081,114.432747 
	C193.077545,117.582985 193.123871,120.287247 193.102783,123.431824 
	C193.081497,126.244865 193.127625,128.617569 193.107361,131.415512 
	C193.085510,133.558807 193.130035,135.276871 193.110046,137.408173 
	C193.089401,139.211960 193.133255,140.602493 193.112244,142.417755 
	C193.089752,144.558136 193.132126,146.273819 193.109573,148.430176 
	C193.087418,151.244232 193.130188,153.617584 193.109741,156.431793 
	C193.089081,159.245529 193.131638,161.618393 193.112213,164.425476 
	C193.092178,166.903137 193.134125,168.946579 193.115112,171.431091 
	C193.094528,174.244781 193.134903,176.617416 193.115570,179.431366 
	C193.094757,182.246368 193.133667,184.620041 193.114319,187.444214 
	C193.002930,190.918610 192.949829,193.942490 192.466431,196.978485 
	C190.026596,197.042114 188.017059,197.093628 185.555374,197.092712 
	C181.752625,195.988281 177.568008,199.123566 174.876831,194.612244 
	C174.888260,193.463348 174.853210,192.696381 174.870682,191.473709 
	C174.892380,187.008621 174.861572,182.999252 174.883362,178.548157 
	C174.899643,175.733917 174.863327,173.361389 174.881470,170.534073 
	C174.953979,168.923477 174.830185,167.744492 175.014679,166.615906 
	C175.801086,161.805344 173.838562,160.260788 169.046432,160.566605 
	C162.796127,160.965500 156.501343,160.667679 150.225708,160.669128 
	C147.397095,160.669785 144.568481,160.669235 140.804169,160.669235 
	C142.533539,158.421494 143.422852,157.265610 144.591217,155.950333 
	C147.632843,152.966858 150.395401,150.142746 153.476562,147.125031 
	C156.398270,145.876297 158.930267,144.222092 161.620667,143.902863 
	C165.927795,143.391800 170.339981,143.765991 174.835815,143.765991 
	C174.835815,140.575623 174.835815,138.280716 174.891708,135.521332 
	C174.947601,129.203430 174.947601,123.349976 174.947601,117.443634 
	C169.266159,122.796783 163.912109,127.841469 158.274673,133.032928 
	C154.212616,137.073776 150.433945,140.967865 146.368225,145.011078 
	C142.920898,148.400665 139.760635,151.641129 136.318420,155.034851 
	C133.208923,158.088455 130.381348,160.988785 127.355507,164.003510 
	C126.924530,164.327393 126.757462,164.580231 126.377869,165.033020 
	C123.994804,167.359955 121.889900,169.530319 119.499283,171.875427 
	C117.025146,174.307861 114.836716,176.565582 112.375496,178.993134 
	C110.281250,181.050461 108.459793,182.937973 106.366028,184.997131 
	C103.994698,187.352814 101.895676,189.536835 99.796654,191.720856 
z"/>
<path fill="#AC74B8" opacity="1.000000" stroke="none" 
	d="
M145.937515,117.035454 
	C145.209747,118.374786 144.064865,119.613602 142.238220,120.900650 
	C128.148392,118.623825 114.769371,116.112167 101.324860,114.021599 
	C85.077202,111.495163 68.784164,109.251511 52.491337,107.027855 
	C41.969860,105.591873 31.413506,104.411392 20.872784,103.116409 
	C17.406994,101.581429 13.941204,100.046448 10.220093,98.285751 
	C14.346714,98.217110 18.774395,98.025070 23.102631,98.592110 
	C41.172733,100.959473 59.230164,103.438408 77.258904,106.102119 
	C92.834999,108.403458 108.366341,111.007896 123.916840,113.482338 
	C131.118805,114.628326 138.319260,115.783775 145.937515,117.035454 
z"/>
<path fill="#702382" opacity="1.000000" stroke="none" 
	d="
M100.094574,191.962021 
	C101.895676,189.536835 103.994698,187.352814 106.724571,185.169678 
	C109.062141,185.816391 110.727516,186.617218 112.481720,187.084976 
	C142.552612,195.103317 172.630661,203.095032 202.726624,211.018585 
	C204.057037,211.368851 205.572876,211.014801 207.339478,211.081345 
	C210.449448,212.452301 213.222305,213.730759 215.995178,215.009216 
	C221.840118,218.591019 227.690552,222.163879 233.525925,225.761200 
	C234.910217,226.614578 236.244003,227.549927 237.805374,228.717743 
	C228.190369,226.535507 218.342850,224.189941 208.556763,221.611237 
	C175.456924,212.889130 142.374039,204.102524 109.300598,195.280884 
	C106.272987,194.473328 103.359154,193.239212 100.094574,191.962021 
z"/>
<path fill="#7C338D" opacity="1.000000" stroke="none" 
	d="
M216.289886,214.871704 
	C213.222305,213.730759 210.449448,212.452301 207.089722,210.855133 
	C203.655914,208.846054 200.738251,207.262802 197.978790,205.440018 
	C193.929001,202.764908 189.992355,199.918533 186.007507,197.145142 
	C188.017059,197.093628 190.026596,197.042114 192.867828,197.020844 
	C197.709595,198.058350 201.720703,199.061493 205.729568,200.073563 
	C220.153870,203.715103 234.577393,207.359650 249.001221,211.003052 
	C249.993378,214.729477 250.985535,218.455902 251.992493,222.584137 
	C242.438751,220.635666 232.876404,218.259644 223.297028,215.954407 
	C221.089508,215.423187 218.823608,215.134506 216.289886,214.871704 
z"/>
<path fill="#823A92" opacity="1.000000" stroke="none" 
	d="
M248.964081,210.611847 
	C234.577393,207.359650 220.153870,203.715103 205.729568,200.073563 
	C201.720703,199.061493 197.709595,198.058350 193.298111,197.008743 
	C192.949829,193.942490 193.002930,190.918610 193.478790,187.535233 
	C199.190552,188.583496 204.455978,190.088440 209.773376,191.379288 
	C221.840927,194.308807 233.934052,197.132996 246.016769,200.000000 
	C246.986832,203.406876 247.956894,206.813751 248.964081,210.611847 
z"/>
<path fill="#884297" opacity="1.000000" stroke="none" 
	d="
M246.008484,199.590515 
	C233.934052,197.132996 221.840927,194.308807 209.773376,191.379288 
	C204.455978,190.088440 199.190552,188.583496 193.537048,187.084732 
	C193.133667,184.620041 193.094757,182.246368 193.526367,179.438400 
	C204.847580,181.341248 215.703430,183.654648 226.546829,186.025101 
	C232.370148,187.298111 238.172058,188.669098 243.983627,189.995880 
	C244.655823,193.057587 245.328003,196.119308 246.008484,199.590515 
z"/>
<path fill="#8D499C" opacity="1.000000" stroke="none" 
	d="
M243.913605,189.639282 
	C238.172058,188.669098 232.370148,187.298111 226.546829,186.025101 
	C215.703430,183.654648 204.847580,181.341248 193.586090,178.997070 
	C193.134903,176.617416 193.094528,174.244781 193.539764,171.433167 
	C205.352844,173.163467 216.679596,175.336380 228.008102,177.500153 
	C232.369751,178.333252 236.735382,179.145538 241.099213,179.967316 
	C241.657028,181.437714 242.214859,182.908112 242.913040,184.691483 
	C243.316788,186.430527 243.580200,187.856613 243.913605,189.639282 
z"/>
<path fill="#A86EB4" opacity="1.000000" stroke="none" 
	d="
M21.101318,103.365173 
	C31.413506,104.411392 41.969860,105.591873 52.491337,107.027855 
	C68.784164,109.251511 85.077202,111.495163 101.324860,114.021599 
	C114.769371,116.112167 128.148392,118.623825 141.960205,121.047493 
	C140.497299,123.101532 138.630646,125.056969 136.163330,126.915878 
	C133.852539,126.239609 132.183487,125.381386 130.426071,125.122070 
	C105.642006,121.465080 80.858124,117.801483 56.043884,114.357971 
	C50.066975,113.528557 43.979778,113.493896 37.943298,113.093750 
	C36.861076,112.769234 35.778851,112.444710 34.367126,112.044167 
	C29.801702,109.183411 25.565777,106.398674 21.101318,103.365173 
z"/>
<path fill="#C897D2" opacity="1.000000" stroke="none" 
	d="
M193.170593,85.994278 
	C193.120987,82.959953 193.071381,79.925621 193.094223,76.441589 
	C200.169769,76.655281 207.172867,77.318672 214.632446,77.972626 
	C215.737595,80.318184 216.386276,82.673187 217.110382,85.598587 
	C217.295166,86.415779 217.431900,86.646339 217.595978,86.860657 
	C217.695358,87.330833 217.794739,87.801010 217.481750,88.617653 
	C209.103134,87.974167 201.136871,86.984222 193.170593,85.994278 
z"/>
<path fill="#9756A5" opacity="1.000000" stroke="none" 
	d="
M117.352066,146.124695 
	C114.851753,148.712891 112.351440,151.301056 109.570755,154.062988 
	C104.103889,151.536285 98.917397,148.835785 93.387238,146.047119 
	C92.778473,145.471405 92.513367,144.983856 92.459015,144.056396 
	C94.269905,143.535294 95.899025,143.219849 97.465149,143.413589 
	C104.104317,144.234909 110.724770,145.207428 117.352066,146.124695 
z"/>
<path fill="#A165AE" opacity="1.000000" stroke="none" 
	d="
M132.350342,131.173935 
	C130.822266,132.791519 129.294189,134.409119 127.154221,135.947540 
	C125.935501,135.611984 125.349449,135.210754 124.718803,135.120255 
	C105.895340,132.418945 87.071854,129.716354 68.231102,127.140190 
	C66.877945,126.955162 65.393631,127.729279 63.970299,128.057434 
	C63.532894,128.024628 63.095486,127.991837 62.330681,127.923569 
	C58.155582,125.421471 54.307888,122.954826 50.555824,120.134277 
	C51.635689,119.745689 52.636597,119.576675 53.601665,119.696449 
	C68.253586,121.514732 82.929001,123.175163 97.540192,125.280205 
	C109.184914,126.957855 120.749939,129.188675 132.350342,131.173935 
z"/>
<path fill="#9E60AB" opacity="1.000000" stroke="none" 
	d="
M64.212799,128.289337 
	C65.393631,127.729279 66.877945,126.955162 68.231102,127.140190 
	C87.071854,129.716354 105.895340,132.418945 124.718803,135.120255 
	C125.349449,135.210754 125.935501,135.611984 126.862274,136.111755 
	C125.740234,137.859467 124.298271,139.363770 122.191986,140.851379 
	C112.234207,139.234879 102.978058,137.342316 93.632492,136.151337 
	C88.495743,135.496750 83.208443,136.023514 77.989021,136.017639 
	C73.477783,133.518845 68.966545,131.020050 64.212799,128.289337 
z"/>
<path fill="#9C5DAA" opacity="1.000000" stroke="none" 
	d="
M78.235672,136.248047 
	C83.208443,136.023514 88.495743,135.496750 93.632492,136.151337 
	C102.978058,137.342316 112.234207,139.234879 121.912750,140.996704 
	C120.832802,142.712982 119.367775,144.267242 117.627403,145.973114 
	C110.724770,145.207428 104.104317,144.234909 97.465149,143.413589 
	C95.899025,143.219849 94.269905,143.535294 92.335175,143.807831 
	C87.494492,141.492264 82.988411,138.985352 78.235672,136.248047 
z"/>
<path fill="#A56AB2" opacity="1.000000" stroke="none" 
	d="
M132.620209,131.033813 
	C120.749939,129.188675 109.184914,126.957855 97.540192,125.280205 
	C82.929001,123.175163 68.253586,121.514732 53.601665,119.696449 
	C52.636597,119.576675 51.635689,119.745689 50.308052,119.903580 
	C46.101379,117.887634 42.238110,115.748482 38.159065,113.351532 
	C43.979778,113.493896 50.066975,113.528557 56.043884,114.357971 
	C80.858124,117.801483 105.642006,121.465080 130.426071,125.122070 
	C132.183487,125.381386 133.852539,126.239609 135.866730,127.077255 
	C135.077209,128.521347 133.983643,129.707520 132.620209,131.033813 
z"/>
<path fill="#BF8CC9" opacity="1.000000" stroke="none" 
	d="
M193.176239,103.989494 
	C193.128387,101.287292 193.080536,98.585083 193.527649,95.438583 
	C196.772858,95.408028 199.511993,95.930115 202.275620,96.213211 
	C208.216003,96.821739 214.168976,97.307144 220.116806,97.842957 
	C220.116806,97.842957 220.506012,97.926315 220.699097,97.973633 
	C221.584579,101.411652 222.277008,104.802353 222.565582,108.576050 
	C212.499908,107.302544 202.838074,105.646019 193.176239,103.989494 
z"/>
<path fill="#C492CE" opacity="1.000000" stroke="none" 
	d="
M220.088501,97.456863 
	C214.168976,97.307144 208.216003,96.821739 202.275620,96.213211 
	C199.511993,95.930115 196.772858,95.408028 193.598923,94.993027 
	C193.126755,92.289703 193.078262,89.587624 193.100189,86.439911 
	C201.136871,86.984222 209.103134,87.974167 217.483109,88.979263 
	C218.617935,91.686531 219.339066,94.378654 220.088501,97.456863 
z"/>
<path fill="#C492CE" opacity="1.000000" stroke="none" 
	d="
M217.561890,86.657272 
	C217.431900,86.646339 217.295166,86.415779 217.115402,85.977127 
	C217.262939,85.967018 217.423859,86.189896 217.561890,86.657272 
z"/>
<path fill="#B17ABD" opacity="1.000000" stroke="none" 
	d="
M193.170197,122.991501 
	C193.123871,120.287247 193.077545,117.582985 193.522034,114.436401 
	C202.283066,115.314575 210.536667,116.759911 218.835556,117.864952 
	C220.828064,118.130264 222.971115,117.265167 225.044922,116.919952 
	C226.001740,120.363243 226.958572,123.806541 227.610352,127.827347 
	C226.335205,128.531570 225.319763,128.911057 224.402008,128.746323 
	C213.982773,126.876091 203.578491,124.922661 193.170197,122.991501 
z"/>
<path fill="#AC74B8" opacity="1.000000" stroke="none" 
	d="
M193.102783,123.431824 
	C203.578491,124.922661 213.982773,126.876091 224.402008,128.746323 
	C225.319763,128.911057 226.335205,128.531570 227.628204,128.222214 
	C228.197250,128.222473 228.425369,128.425613 228.796310,128.811279 
	C229.266678,131.055511 229.576233,133.137482 229.726532,135.872009 
	C228.031235,136.755707 226.416595,137.414856 224.971649,137.149612 
	C214.353287,135.200333 203.768875,133.066177 193.173752,130.990280 
	C193.127625,128.617569 193.081497,126.244865 193.102783,123.431824 
z"/>
<path fill="#B984C4" opacity="1.000000" stroke="none" 
	d="
M224.984055,116.545410 
	C222.971115,117.265167 220.828064,118.130264 218.835556,117.864952 
	C210.536667,116.759911 202.283066,115.314575 193.592911,113.990417 
	C193.127029,110.954330 193.081085,107.921906 193.105682,104.439484 
	C202.838074,105.646019 212.499908,107.302544 222.582870,108.971214 
	C223.643723,111.379204 224.283463,113.775032 224.984055,116.545410 
z"/>
<path fill="#9C5DAA" opacity="1.000000" stroke="none" 
	d="
M193.172958,155.990936 
	C193.130188,153.617584 193.087418,151.244232 193.496033,148.473480 
	C201.723129,149.638245 209.471329,151.359467 217.283554,152.710342 
	C223.127960,153.720932 229.054916,154.254135 234.945114,154.999908 
	C235.292419,155.784225 235.639740,156.568542 236.047791,157.674225 
	C236.410995,159.740417 236.713470,161.485260 236.641525,163.530167 
	C221.902390,161.217133 207.537674,158.604034 193.172958,155.990936 
z"/>
<path fill="#A165AE" opacity="1.000000" stroke="none" 
	d="
M234.928253,154.625107 
	C229.054916,154.254135 223.127960,153.720932 217.283554,152.710342 
	C209.471329,151.359467 201.723129,149.638245 193.560974,148.032776 
	C193.132126,146.273819 193.089752,144.558136 193.523621,142.423828 
	C204.247818,143.815582 214.485535,145.687454 224.750580,147.395065 
	C227.465286,147.846664 230.264191,147.792084 233.024445,147.969940 
	C233.653427,150.063400 234.282394,152.156845 234.928253,154.625107 
z"/>
<path fill="#A86EB4" opacity="1.000000" stroke="none" 
	d="
M193.107361,131.415512 
	C203.768875,133.066177 214.353287,135.200333 224.971649,137.149612 
	C226.416595,137.414856 228.031235,136.755707 229.784607,136.259308 
	C230.616714,138.077118 231.231537,140.160187 231.410126,142.618362 
	C218.374115,140.993958 205.774338,138.994446 193.174561,136.994934 
	C193.130035,135.276871 193.085510,133.558807 193.107361,131.415512 
z"/>
<path fill="#A56AB2" opacity="1.000000" stroke="none" 
	d="
M193.110046,137.408173 
	C205.774338,138.994446 218.374115,140.993958 231.410583,142.990891 
	C232.196625,144.409424 232.545959,145.830536 232.959869,147.610794 
	C230.264191,147.792084 227.465286,147.846664 224.750580,147.395065 
	C214.485535,145.687454 204.247818,143.815582 193.588501,141.999115 
	C193.133255,140.602493 193.089401,139.211960 193.110046,137.408173 
z"/>
<path fill="#924FA1" opacity="1.000000" stroke="none" 
	d="
M241.064545,179.574020 
	C236.735382,179.145538 232.369751,178.333252 228.008102,177.500153 
	C216.679596,175.336380 205.352844,173.163467 193.600739,170.992126 
	C193.134125,168.946579 193.092178,166.903137 193.553848,164.427155 
	C198.287125,164.558151 202.531235,165.031036 206.743622,165.702896 
	C217.495682,167.417847 228.233582,169.221558 238.977158,170.989746 
	C239.661392,173.720078 240.345627,176.450394 241.064545,179.574020 
z"/>
<path fill="#9756A5" opacity="1.000000" stroke="none" 
	d="
M238.909836,170.625092 
	C228.233582,169.221558 217.495682,167.417847 206.743622,165.702896 
	C202.531235,165.031036 198.287125,164.558151 193.615829,163.992950 
	C193.131638,161.618393 193.089081,159.245529 193.109741,156.431793 
	C207.537674,158.604034 221.902390,161.217133 236.657867,163.913055 
	C237.646576,166.084061 238.244553,168.172256 238.909836,170.625092 
z"/>
<path fill="#752986" opacity="1.000000" stroke="none" 
	d="
M185.555374,197.092712 
	C189.992355,199.918533 193.929001,202.764908 197.978790,205.440018 
	C200.738251,207.262802 203.655914,208.846054 206.752594,210.762634 
	C205.572876,211.014801 204.057037,211.368851 202.726624,211.018585 
	C172.630661,203.095032 142.552612,195.103317 112.481720,187.084976 
	C110.727516,186.617218 109.062141,185.816391 106.996880,184.998016 
	C108.459793,182.937973 110.281250,181.050461 112.750854,179.154495 
	C125.690918,182.452255 137.963013,185.834717 150.281754,189.037766 
	C158.429977,191.156433 166.645142,193.017685 174.830338,194.994171 
	C177.568008,199.123566 181.752625,195.988281 185.555374,197.092712 
z"/>
<path fill="#782D89" opacity="1.000000" stroke="none" 
	d="
M174.876831,194.612244 
	C166.645142,193.017685 158.429977,191.156433 150.281754,189.037766 
	C137.963013,185.834717 125.690918,182.452255 113.023643,178.984665 
	C114.836716,176.565582 117.025146,174.307861 119.773148,172.141144 
	C129.630051,175.009445 138.909500,177.849426 148.240112,180.510040 
	C150.057419,181.028244 152.073685,180.848770 154.348022,181.075470 
	C161.404633,184.749710 168.111404,188.339569 174.818176,191.929428 
	C174.853210,192.696381 174.888260,193.463348 174.876831,194.612244 
z"/>
<path fill="#904C9F" opacity="1.000000" stroke="none" 
	d="
M144.312164,156.109711 
	C143.422852,157.265610 142.533539,158.421494 140.804169,160.669235 
	C144.568481,160.669235 147.397095,160.669785 150.225708,160.669128 
	C156.501343,160.667679 162.796127,160.965500 169.046432,160.566605 
	C173.838562,160.260788 175.801086,161.805344 175.014679,166.615906 
	C174.830185,167.744492 174.953979,168.923477 174.448181,170.536407 
	C171.823044,170.867935 169.654938,170.929962 167.553253,170.586151 
	C154.211914,168.403732 140.885254,166.131653 127.553764,163.889099 
	C130.381348,160.988785 133.208923,158.088455 136.740997,155.130875 
	C139.734375,155.418976 142.023270,155.764343 144.312164,156.109711 
z"/>
<path fill="#8A449A" opacity="1.000000" stroke="none" 
	d="
M127.355507,164.003510 
	C140.885254,166.131653 154.211914,168.403732 167.553253,170.586151 
	C169.654938,170.929962 171.823044,170.867935 174.393723,170.991211 
	C174.863327,173.361389 174.899643,175.733917 174.454865,178.550446 
	C167.359940,177.929489 160.758560,176.774734 154.124695,175.854080 
	C152.128662,175.577057 150.042267,175.951202 147.649048,175.942169 
	C140.419235,172.197037 133.537628,168.536758 126.656021,164.876465 
	C126.757462,164.580231 126.924530,164.327393 127.355507,164.003510 
z"/>
<path fill="#9E60AB" opacity="1.000000" stroke="none" 
	d="
M146.655289,144.861938 
	C150.433945,140.967865 154.212616,137.073776 158.687943,133.123703 
	C164.535019,134.040405 169.685410,135.013107 174.835815,135.985794 
	C174.835815,138.280716 174.835815,140.575623 174.835815,143.765991 
	C170.339981,143.765991 165.927795,143.391800 161.620667,143.902863 
	C158.930267,144.222092 156.398270,145.876297 153.171844,146.892044 
	C150.584106,146.189072 148.619690,145.525513 146.655289,144.861938 
z"/>
<path fill="#7E348E" opacity="1.000000" stroke="none" 
	d="
M126.377861,165.033035 
	C133.537628,168.536758 140.419235,172.197037 147.846588,176.202759 
	C150.260925,178.029160 152.129547,179.510132 153.998169,180.991104 
	C152.073685,180.848770 150.057419,181.028244 148.240112,180.510040 
	C138.909500,177.849426 129.630051,175.009445 120.058853,171.966400 
	C121.889900,169.530319 123.994804,167.359955 126.377861,165.033035 
z"/>
<path fill="#843C94" opacity="1.000000" stroke="none" 
	d="
M154.348022,181.075470 
	C152.129547,179.510132 150.260925,178.029160 148.194794,176.287613 
	C150.042267,175.951202 152.128662,175.577057 154.124695,175.854080 
	C160.758560,176.774734 167.359940,177.929489 174.402267,178.992172 
	C174.861572,182.999252 174.892380,187.008621 174.870682,191.473709 
	C168.111404,188.339569 161.404633,184.749710 154.348022,181.075470 
z"/>
<path fill="#A86EB4" opacity="1.000000" stroke="none" 
	d="
M174.891708,135.521332 
	C169.685410,135.013107 164.535019,134.040405 158.971344,132.976929 
	C163.912109,127.841469 169.266159,122.796783 174.947601,117.443634 
	C174.947601,123.349976 174.947601,129.203430 174.891708,135.521332 
z"/>
<path fill="#9756A5" opacity="1.000000" stroke="none" 
	d="
M146.368225,145.011078 
	C148.619690,145.525513 150.584106,146.189072 152.853241,147.085632 
	C150.395401,150.142746 147.632843,152.966858 144.591217,155.950333 
	C142.023270,155.764343 139.734375,155.418976 137.022919,154.977600 
	C139.760635,151.641129 142.920898,148.400665 146.368225,145.011078 
z"/>
</svg>