<?xml version="1.0" encoding="UTF-8"?>
<!DOCTYPE svg PUBLIC "-//W3C//DTD SVG 1.1//EN" "http://www.w3.org/Graphics/SVG/1.1/DTD/svg11.dtd">
<svg xmlns="http://www.w3.org/2000/svg" version="1.1" width="256px" height="256px" style="shape-rendering:geometricPrecision; text-rendering:geometricPrecision; image-rendering:optimizeQuality; fill-rule:evenodd; clip-rule:evenodd" xmlns:xlink="http://www.w3.org/1999/xlink">
<g><path style="opacity:1" fill="#e0b7e8" d="M 191.5,-0.5 C 192.833,-0.5 194.167,-0.5 195.5,-0.5C 195.5,-0.166667 195.5,0.166667 195.5,0.5C 194.957,0.559992 194.624,0.893326 194.5,1.5C 197.15,10.7686 199.484,20.102 201.5,29.5C 201.741,32.999 200.908,33.3323 199,30.5C 197.184,32.4414 195.184,33.1081 193,32.5C 191.283,31.5448 189.616,30.5448 188,29.5C 186.605,30.8146 185.605,30.4812 185,28.5C 184.333,31.1667 183.667,31.1667 183,28.5C 182.667,29.1667 182.333,29.8333 182,30.5C 180.863,29.636 179.53,28.636 178,27.5C 174.746,28.3593 171.746,28.6926 169,28.5C 167.333,27.5 165.667,26.5 164,25.5C 160.48,26.0214 156.813,26.0214 153,25.5C 150.869,24.3852 149.035,23.0519 147.5,21.5C 162.167,14.1667 176.833,6.83333 191.5,-0.5 Z"/></g>
<g><path style="opacity:1" fill="#dcb1e4" d="M 147.5,21.5 C 149.035,23.0519 150.869,24.3852 153,25.5C 156.813,26.0214 160.48,26.0214 164,25.5C 165.667,26.5 167.333,27.5 169,28.5C 171.746,28.6926 174.746,28.3593 178,27.5C 179.53,28.636 180.863,29.636 182,30.5C 182.333,29.8333 182.667,29.1667 183,28.5C 183.667,31.1667 184.333,31.1667 185,28.5C 185.605,30.4812 186.605,30.8146 188,29.5C 189.616,30.5448 191.283,31.5448 193,32.5C 195.184,33.1081 197.184,32.4414 199,30.5C 200.908,33.3323 201.741,32.999 201.5,29.5C 203.593,34.8785 204.927,40.5451 205.5,46.5C 197.195,45.3809 189.028,43.7142 181,41.5C 179.853,42.4581 178.853,42.1247 178,40.5C 176.732,40.6158 175.398,40.9491 174,41.5C 172.988,39.1358 171.655,37.8024 170,37.5C 169.309,39.8912 168.309,39.8912 167,37.5C 165.057,39.7151 163.391,39.7151 162,37.5C 161.333,40.1667 160.667,40.1667 160,37.5C 159.692,38.3081 159.192,38.9747 158.5,39.5C 157.304,39.1543 157.304,38.6543 158.5,38C 157.551,37.3828 156.718,37.5494 156,38.5C 155.333,35.8333 154.667,35.8333 154,38.5C 153.646,36.1925 152.646,35.8592 151,37.5C 148.139,36.9541 145.473,35.9541 143,34.5C 141.984,35.6341 141.317,35.3008 141,33.5C 137.333,33.5 133.667,33.5 130,33.5C 129.517,32.552 129.351,31.552 129.5,30.5C 135.182,26.9922 141.182,23.9922 147.5,21.5 Z"/></g>
<g><path style="opacity:1" fill="#d7abdf" d="M 129.5,30.5 C 129.351,31.552 129.517,32.552 130,33.5C 133.667,33.5 137.333,33.5 141,33.5C 141.317,35.3008 141.984,35.6341 143,34.5C 145.473,35.9541 148.139,36.9541 151,37.5C 152.646,35.8592 153.646,36.1925 154,38.5C 154.667,35.8333 155.333,35.8333 156,38.5C 156.718,37.5494 157.551,37.3828 158.5,38C 157.304,38.6543 157.304,39.1543 158.5,39.5C 159.192,38.9747 159.692,38.3081 160,37.5C 160.667,40.1667 161.333,40.1667 162,37.5C 163.391,39.7151 165.057,39.7151 167,37.5C 168.309,39.8912 169.309,39.8912 170,37.5C 171.655,37.8024 172.988,39.1358 174,41.5C 175.398,40.9491 176.732,40.6158 178,40.5C 178.853,42.1247 179.853,42.4581 181,41.5C 189.028,43.7142 197.195,45.3809 205.5,46.5C 206.924,48.5145 207.59,50.8478 207.5,53.5C 207.762,54.9778 207.429,56.3112 206.5,57.5C 205.575,56.3595 204.741,56.3595 204,57.5C 196.381,56.4111 188.714,54.4111 181,51.5C 180.692,52.3081 180.192,52.9747 179.5,53.5C 169.101,50.6461 158.768,48.3128 148.5,46.5C 144.905,46.6351 141.405,46.6351 138,46.5C 136.676,45.1198 135.343,44.7865 134,45.5C 127.804,43.3492 121.47,41.6826 115,40.5C 113.274,41.5762 111.441,41.7429 109.5,41C 110.056,40.6174 110.389,40.1174 110.5,39.5C 116.412,35.7119 122.745,32.7119 129.5,30.5 Z"/></g>
<g><path style="opacity:1" fill="#a215bd" d="M 195.5,0.5 C 209.801,16.3061 223.968,32.3061 238,48.5C 238.494,50.1341 238.66,51.8008 238.5,53.5C 238.5,54.8333 238.5,56.1667 238.5,57.5C 228.833,57.5 219.167,57.5 209.5,57.5C 209.011,56.0048 208.345,54.6715 207.5,53.5C 207.59,50.8478 206.924,48.5145 205.5,46.5C 204.927,40.5451 203.593,34.8785 201.5,29.5C 199.484,20.102 197.15,10.7686 194.5,1.5C 194.624,0.893326 194.957,0.559992 195.5,0.5 Z"/></g>
<g><path style="opacity:1" fill="#d2a4db" d="M 110.5,39.5 C 110.389,40.1174 110.056,40.6174 109.5,41C 111.441,41.7429 113.274,41.5762 115,40.5C 121.47,41.6826 127.804,43.3492 134,45.5C 135.343,44.7865 136.676,45.1198 138,46.5C 141.405,46.6351 144.905,46.6351 148.5,46.5C 158.768,48.3128 169.101,50.6461 179.5,53.5C 180.192,52.9747 180.692,52.3081 181,51.5C 188.714,54.4111 196.381,56.4111 204,57.5C 204.741,56.3595 205.575,56.3595 206.5,57.5C 207.429,56.3112 207.762,54.9778 207.5,53.5C 208.345,54.6715 209.011,56.0048 209.5,57.5C 209.993,59.8056 210.326,62.139 210.5,64.5C 210.542,66.8489 209.375,68.1822 207,68.5C 205.51,67.3176 204.177,66.3176 203,65.5C 202.333,68.1667 201.667,68.1667 201,65.5C 199.434,64.9394 198.101,65.6061 197,67.5C 196.333,66.8333 195.667,66.1667 195,65.5C 193.497,65.8346 192.164,65.8346 191,65.5C 190.333,62.8333 189.667,62.8333 189,65.5C 188.646,63.1925 187.646,62.8592 186,64.5C 183.703,62.579 181.703,62.579 180,64.5C 175.667,63.1667 171.333,61.8333 167,60.5C 162.569,61.1518 158.235,60.4851 154,58.5C 150.89,58.9443 147.556,58.9443 144,58.5C 141.667,57.5 139.333,56.5 137,55.5C 132.713,55.2932 128.38,55.2932 124,55.5C 123.147,53.8753 122.147,53.5419 121,54.5C 116.579,53.4776 112.245,52.1443 108,50.5C 107,50.8333 106,51.1667 105,51.5C 101.901,50.5447 98.734,49.7114 95.5,49C 94.4019,48.2303 94.4019,47.397 95.5,46.5C 100.07,43.3836 105.07,41.0502 110.5,39.5 Z"/></g>
<g><path style="opacity:1" fill="#ca9ad3" d="M 95.5,46.5 C 94.4019,47.397 94.4019,48.2303 95.5,49C 98.734,49.7114 101.901,50.5447 105,51.5C 106,51.1667 107,50.8333 108,50.5C 112.245,52.1443 116.579,53.4776 121,54.5C 122.147,53.5419 123.147,53.8753 124,55.5C 128.38,55.2932 132.713,55.2932 137,55.5C 139.333,56.5 141.667,57.5 144,58.5C 147.556,58.9443 150.89,58.9443 154,58.5C 158.235,60.4851 162.569,61.1518 167,60.5C 171.333,61.8333 175.667,63.1667 180,64.5C 181.703,62.579 183.703,62.579 186,64.5C 187.646,62.8592 188.646,63.1925 189,65.5C 189.667,62.8333 190.333,62.8333 191,65.5C 192.164,65.8346 193.497,65.8346 195,65.5C 195.667,66.1667 196.333,66.8333 197,67.5C 198.101,65.6061 199.434,64.9394 201,65.5C 201.667,68.1667 202.333,68.1667 203,65.5C 204.177,66.3176 205.51,67.3176 207,68.5C 209.375,68.1822 210.542,66.8489 210.5,64.5C 212.102,68.2393 213.102,72.2393 213.5,76.5C 210.632,76.085 208.465,77.085 207,79.5C 203.822,78.1443 200.822,77.1443 198,76.5C 195.959,77.4231 193.792,77.7564 191.5,77.5C 191.664,74.8127 191.497,72.146 191,69.5C 187.631,73.0374 184.131,76.3707 180.5,79.5C 165.269,78.0264 149.935,75.3597 134.5,71.5C 133.707,71.9312 132.873,72.2645 132,72.5C 126.759,71.3155 121.592,70.3155 116.5,69.5C 114.813,69.7605 113.313,70.4272 112,71.5C 111.147,69.8753 110.147,69.5419 109,70.5C 106.667,69.5 104.333,68.5 102,67.5C 101.333,70.1667 100.667,70.1667 100,67.5C 99.3333,70.1667 98.6667,70.1667 98,67.5C 96.6569,68.2135 95.3236,67.8802 94,66.5C 88.8591,67.4461 83.8591,67.4461 79,66.5C 77.5587,65.13 75.892,64.13 74,63.5C 72.6667,63.5 71.3333,63.5 70,63.5C 68.4815,62.8366 67.3149,61.8366 66.5,60.5C 75.9156,55.4638 85.5822,50.7971 95.5,46.5 Z"/></g>
<g><path style="opacity:1" fill="#9e18b7" d="M 238.5,53.5 C 239.815,60.6295 240.482,67.9628 240.5,75.5C 240.665,78.8499 240.498,82.1832 240,85.5C 232.253,84.5183 224.42,84.185 216.5,84.5C 215.5,81.8333 214.5,79.1667 213.5,76.5C 213.102,72.2393 212.102,68.2393 210.5,64.5C 210.326,62.139 209.993,59.8056 209.5,57.5C 219.167,57.5 228.833,57.5 238.5,57.5C 238.5,56.1667 238.5,54.8333 238.5,53.5 Z"/></g>
<g><path style="opacity:1" fill="#c391cd" d="M 66.5,60.5 C 67.3149,61.8366 68.4815,62.8366 70,63.5C 71.3333,63.5 72.6667,63.5 74,63.5C 75.892,64.13 77.5587,65.13 79,66.5C 83.8591,67.4461 88.8591,67.4461 94,66.5C 95.3236,67.8802 96.6569,68.2135 98,67.5C 98.6667,70.1667 99.3333,70.1667 100,67.5C 100.667,70.1667 101.333,70.1667 102,67.5C 104.333,68.5 106.667,69.5 109,70.5C 110.147,69.5419 111.147,69.8753 112,71.5C 113.313,70.4272 114.813,69.7605 116.5,69.5C 121.592,70.3155 126.759,71.3155 132,72.5C 132.873,72.2645 133.707,71.9312 134.5,71.5C 149.935,75.3597 165.269,78.0264 180.5,79.5C 177.5,83.1667 174.167,86.5 170.5,89.5C 159.703,88.6714 148.37,86.3381 136.5,82.5C 132.882,83.0242 129.049,83.0242 125,82.5C 124.333,79.8333 123.667,79.8333 123,82.5C 122,81.5 121,80.5 120,79.5C 117.485,79.3533 114.485,79.3533 111,79.5C 110.333,76.8333 109.667,76.8333 109,79.5C 107.434,80.0606 106.101,79.3939 105,77.5C 103.984,78.6341 103.317,78.3008 103,76.5C 102.667,77.1667 102.333,77.8333 102,78.5C 101,77.5 100,76.5 99,75.5C 98.6667,76.1667 98.3333,76.8333 98,77.5C 97.1597,74.5363 96.1597,74.203 95,76.5C 94.6924,75.6919 94.1924,75.0253 93.5,74.5C 92.1097,76.2029 90.6097,76.8696 89,76.5C 87.9207,74.6063 86.5874,74.273 85,75.5C 84.7167,72.2577 83.8834,71.9244 82.5,74.5C 81.5745,73.3595 80.7412,73.3595 80,74.5C 79.1475,72.8753 78.1475,72.5419 77,73.5C 75.6152,72.4495 74.6152,71.1161 74,69.5C 73,70.1667 72,70.8333 71,71.5C 69.4702,70.364 68.1369,69.364 67,68.5C 65.8567,71.9153 64.19,72.2486 62,69.5C 59.841,70.1967 57.6743,69.8634 55.5,68.5C 54.4376,67.5754 54.4376,66.5754 55.5,65.5C 59.0432,63.5617 62.7099,61.8951 66.5,60.5 Z"/></g>
<g><path style="opacity:1" fill="#bd8ac8" d="M 55.5,65.5 C 54.4376,66.5754 54.4376,67.5754 55.5,68.5C 57.6743,69.8634 59.841,70.1967 62,69.5C 64.19,72.2486 65.8567,71.9153 67,68.5C 68.1369,69.364 69.4702,70.364 71,71.5C 72,70.8333 73,70.1667 74,69.5C 74.6152,71.1161 75.6152,72.4495 77,73.5C 78.1475,72.5419 79.1475,72.8753 80,74.5C 80.7412,73.3595 81.5745,73.3595 82.5,74.5C 83.8834,71.9244 84.7167,72.2577 85,75.5C 86.5874,74.273 87.9207,74.6063 89,76.5C 90.6097,76.8696 92.1097,76.2029 93.5,74.5C 94.1924,75.0253 94.6924,75.6919 95,76.5C 96.1597,74.203 97.1597,74.5363 98,77.5C 98.3333,76.8333 98.6667,76.1667 99,75.5C 100,76.5 101,77.5 102,78.5C 102.333,77.8333 102.667,77.1667 103,76.5C 103.317,78.3008 103.984,78.6341 105,77.5C 106.101,79.3939 107.434,80.0606 109,79.5C 109.667,76.8333 110.333,76.8333 111,79.5C 114.485,79.3533 117.485,79.3533 120,79.5C 121,80.5 122,81.5 123,82.5C 123.667,79.8333 124.333,79.8333 125,82.5C 129.049,83.0242 132.882,83.0242 136.5,82.5C 148.37,86.3381 159.703,88.6714 170.5,89.5C 168.167,92.5 165.5,95.1667 162.5,97.5C 153.899,95.8535 145.232,94.1868 136.5,92.5C 135.707,92.9312 134.873,93.2645 134,93.5C 129.09,92.5719 124.424,91.2385 120,89.5C 115.079,90.8837 109.746,90.2171 104,87.5C 102.732,87.6158 101.398,87.9491 100,88.5C 96.5742,87.3132 93.0742,86.3132 89.5,85.5C 88.0379,86.4709 86.7046,86.1376 85.5,84.5C 84.2519,85.0402 83.0852,85.7069 82,86.5C 80.1153,84.98 77.9486,83.98 75.5,83.5C 73.0733,84.6398 70.5733,84.6398 68,83.5C 66.4877,81.0426 65.1544,81.0426 64,83.5C 62.566,81.8645 60.7326,80.8645 58.5,80.5C 57.914,80.7093 57.414,81.0426 57,81.5C 50.8626,81.2917 44.5292,79.9584 38,77.5C 36.692,78.1513 35.8586,77.4846 35.5,75.5C 41.849,71.6588 48.5157,68.3255 55.5,65.5 Z"/></g>
<g><path style="opacity:1" fill="#241f22" d="M 191.5,77.5 C 191.5,82.8333 191.5,88.1667 191.5,93.5C 191.5,100.167 191.5,106.833 191.5,113.5C 191.5,120.5 191.5,127.5 191.5,134.5C 191.5,139.167 191.5,143.833 191.5,148.5C 191.5,152.833 191.5,157.167 191.5,161.5C 191.5,166.833 191.5,172.167 191.5,177.5C 191.5,182.833 191.5,188.167 191.5,193.5C 189.012,195.388 186.012,196.055 182.5,195.5C 179.5,195.5 176.5,195.5 173.5,195.5C 173.5,193.833 173.5,192.167 173.5,190.5C 173.5,180.167 173.5,169.833 173.5,159.5C 162.5,158.833 151.5,158.167 140.5,157.5C 141.833,155.833 143.167,154.167 144.5,152.5C 147.964,149.538 151.297,146.371 154.5,143C 160.825,142.5 167.158,142.334 173.5,142.5C 173.5,141.5 173.5,140.5 173.5,139.5C 173.666,131.493 173.5,123.493 173,115.5C 165.964,122.368 159.131,129.368 152.5,136.5C 147.167,141.167 142.167,146.167 137.5,151.5C 133.167,155.167 129.167,159.167 125.5,163.5C 121.5,166.833 117.833,170.5 114.5,174.5C 110.167,178.167 106.167,182.167 102.5,186.5C 99.3694,189.129 96.3694,191.962 93.5,195C 86.5079,195.5 79.5079,195.666 72.5,195.5C 69.9407,195.802 67.6074,195.468 65.5,194.5C 71.1667,189.5 76.5,184.167 81.5,178.5C 85.1667,175.5 88.5,172.167 91.5,168.5C 95.1667,165.5 98.5,162.167 101.5,158.5C 103.833,156.833 105.833,154.833 107.5,152.5C 112.5,148.167 117.167,143.5 121.5,138.5C 125.833,134.833 129.833,130.833 133.5,126.5C 135.833,124.833 137.833,122.833 139.5,120.5C 142.167,118.5 144.5,116.167 146.5,113.5C 149.833,110.833 152.833,107.833 155.5,104.5C 158.167,102.5 160.5,100.167 162.5,97.5C 165.5,95.1667 168.167,92.5 170.5,89.5C 174.167,86.5 177.5,83.1667 180.5,79.5C 184.131,76.3707 187.631,73.0374 191,69.5C 191.497,72.146 191.664,74.8127 191.5,77.5 Z"/></g>
<g><path style="opacity:1" fill="#b782c3" d="M 35.5,75.5 C 35.8586,77.4846 36.692,78.1513 38,77.5C 44.5292,79.9584 50.8626,81.2917 57,81.5C 57.414,81.0426 57.914,80.7093 58.5,80.5C 60.7326,80.8645 62.566,81.8645 64,83.5C 65.1544,81.0426 66.4877,81.0426 68,83.5C 70.5733,84.6398 73.0733,84.6398 75.5,83.5C 77.9486,83.98 80.1153,84.98 82,86.5C 83.0852,85.7069 84.2519,85.0402 85.5,84.5C 86.7046,86.1376 88.0379,86.4709 89.5,85.5C 93.0742,86.3132 96.5742,87.3132 100,88.5C 101.398,87.9491 102.732,87.6158 104,87.5C 109.746,90.2171 115.079,90.8837 120,89.5C 124.424,91.2385 129.09,92.5719 134,93.5C 134.873,93.2645 135.707,92.9312 136.5,92.5C 145.232,94.1868 153.899,95.8535 162.5,97.5C 160.5,100.167 158.167,102.5 155.5,104.5C 138.828,102.544 122.328,99.8777 106,96.5C 104.893,96.5852 103.893,96.9186 103,97.5C 98.7023,96.0674 94.7023,94.7341 91,93.5C 89.8525,94.4581 88.8525,94.1247 88,92.5C 87.3333,95.1667 86.6667,95.1667 86,92.5C 82,93.8333 78,93.8333 74,92.5C 72.0903,91.7935 70.0903,90.7935 68,89.5C 67.3333,90.1667 66.6667,90.8333 66,91.5C 63.9097,90.2065 61.9097,89.2065 60,88.5C 59.3086,90.8912 58.3086,90.8912 57,88.5C 54.9098,89.7908 53.5764,89.1242 53,86.5C 52.6667,87.1667 52.3333,87.8333 52,88.5C 51,87.1667 50,87.1667 49,88.5C 48.3333,87.8333 47.6667,87.1667 47,86.5C 44.824,86.4284 42.824,86.7617 41,87.5C 40.6667,86.8333 40.3333,86.1667 40,85.5C 37.6667,85.5 35.3333,85.5 33,85.5C 32.3333,82.8333 31.6667,82.8333 31,85.5C 30.6667,84.8333 30.3333,84.1667 30,83.5C 27.4383,84.0874 24.7716,84.4207 22,84.5C 22.1929,82.9176 23.0262,81.5843 24.5,80.5C 27.7403,78.049 31.4069,76.3824 35.5,75.5 Z"/></g>
<g><path style="opacity:1" fill="#c593d0" d="M 213.5,76.5 C 214.5,79.1667 215.5,81.8333 216.5,84.5C 217.167,88.5 217.833,92.5 218.5,96.5C 217.828,97.2674 216.995,97.9341 216,98.5C 214.604,96.4732 212.938,96.1398 211,97.5C 210.072,95.6652 208.906,95.3318 207.5,96.5C 206.522,96.0233 205.689,95.3567 205,94.5C 204.333,95.8333 203.667,95.8333 203,94.5C 202.333,97.1667 201.667,97.1667 201,94.5C 199.235,93.7607 197.235,93.7607 195,94.5C 194.047,92.6269 192.88,92.2935 191.5,93.5C 191.5,88.1667 191.5,82.8333 191.5,77.5C 193.792,77.7564 195.959,77.4231 198,76.5C 200.822,77.1443 203.822,78.1443 207,79.5C 208.465,77.085 210.632,76.085 213.5,76.5 Z"/></g>
<g><path style="opacity:1" fill="#991db0" d="M 240.5,75.5 C 241.815,82.6295 242.482,89.9628 242.5,97.5C 242.819,99.7505 242.319,101.75 241,103.5C 234.29,103.792 227.456,103.459 220.5,102.5C 220.405,100.214 219.738,98.2143 218.5,96.5C 217.833,92.5 217.167,88.5 216.5,84.5C 224.42,84.185 232.253,84.5183 240,85.5C 240.498,82.1832 240.665,78.8499 240.5,75.5 Z"/></g>
<g><path style="opacity:1" fill="#ac74b8" d="M 5.5,89.5 C 4.58761,90.7382 4.42094,92.0715 5,93.5C 5.41395,93.0426 5.91395,92.7093 6.5,92.5C 9.99433,93.2603 13.4943,94.2603 17,95.5C 19.3612,94.4878 22.0278,94.8211 25,96.5C 26,96.1667 27,95.8333 28,95.5C 28.3333,96.1667 28.6667,96.8333 29,97.5C 32.034,97.1834 35.3673,97.1834 39,97.5C 41.9638,97.8829 44.6305,98.8829 47,100.5C 47.6667,99.8333 48.3333,99.1667 49,98.5C 51.0876,99.3081 53.0876,100.308 55,101.5C 56.545,101.634 58.2117,101.3 60,100.5C 62.077,101.017 64.077,101.684 66,102.5C 69.5,102.417 73,102.417 76.5,102.5C 82.3693,103.794 88.2026,105.127 94,106.5C 100.178,105.958 106.345,106.624 112.5,108.5C 113.442,108.392 114.275,108.059 115,107.5C 117.557,109.314 120.224,109.648 123,108.5C 130.911,110.248 138.745,111.914 146.5,113.5C 144.5,116.167 142.167,118.5 139.5,120.5C 130.79,118.91 122.123,117.243 113.5,115.5C 112.228,115.57 111.062,115.903 110,116.5C 105.632,114.782 101.132,113.449 96.5,112.5C 92.727,112.353 88.8937,112.353 85,112.5C 81.3845,111.287 77.7178,110.287 74,109.5C 73.6667,109.833 73.3333,110.167 73,110.5C 68.7038,109.315 64.3704,108.315 60,107.5C 59.586,107.957 59.086,108.291 58.5,108.5C 56.3786,107.65 54.2119,106.65 52,105.5C 48.9074,106.894 46.2408,106.227 44,103.5C 42.6667,106.167 41.3333,106.167 40,103.5C 37.6667,103.833 35.3333,104.167 33,104.5C 30.9097,103.206 28.9097,102.206 27,101.5C 25.3333,101.833 23.6667,102.167 22,102.5C 21.2208,99.9028 20.7208,99.9028 20.5,102.5C 14.1882,99.6786 7.8549,96.8453 1.5,94C 0.401911,93.2303 0.401911,92.397 1.5,91.5C 2.51369,90.3263 3.84702,89.6596 5.5,89.5 Z"/></g>
<g><path style="opacity:1" fill="#b17bbd" d="M 24.5,80.5 C 23.0262,81.5843 22.1929,82.9176 22,84.5C 24.7716,84.4207 27.4383,84.0874 30,83.5C 30.3333,84.1667 30.6667,84.8333 31,85.5C 31.6667,82.8333 32.3333,82.8333 33,85.5C 35.3333,85.5 37.6667,85.5 40,85.5C 40.3333,86.1667 40.6667,86.8333 41,87.5C 42.824,86.7617 44.824,86.4284 47,86.5C 47.6667,87.1667 48.3333,87.8333 49,88.5C 50,87.1667 51,87.1667 52,88.5C 52.3333,87.8333 52.6667,87.1667 53,86.5C 53.5764,89.1242 54.9098,89.7908 57,88.5C 58.3086,90.8912 59.3086,90.8912 60,88.5C 61.9097,89.2065 63.9097,90.2065 66,91.5C 66.6667,90.8333 67.3333,90.1667 68,89.5C 70.0903,90.7935 72.0903,91.7935 74,92.5C 78,93.8333 82,93.8333 86,92.5C 86.6667,95.1667 87.3333,95.1667 88,92.5C 88.8525,94.1247 89.8525,94.4581 91,93.5C 94.7023,94.7341 98.7023,96.0674 103,97.5C 103.893,96.9186 104.893,96.5852 106,96.5C 122.328,99.8777 138.828,102.544 155.5,104.5C 152.833,107.833 149.833,110.833 146.5,113.5C 138.745,111.914 130.911,110.248 123,108.5C 120.224,109.648 117.557,109.314 115,107.5C 114.275,108.059 113.442,108.392 112.5,108.5C 106.345,106.624 100.178,105.958 94,106.5C 88.2026,105.127 82.3693,103.794 76.5,102.5C 73,102.417 69.5,102.417 66,102.5C 64.077,101.684 62.077,101.017 60,100.5C 58.2117,101.3 56.545,101.634 55,101.5C 53.0876,100.308 51.0876,99.3081 49,98.5C 48.3333,99.1667 47.6667,99.8333 47,100.5C 44.6305,98.8829 41.9638,97.8829 39,97.5C 35.3673,97.1834 32.034,97.1834 29,97.5C 28.6667,96.8333 28.3333,96.1667 28,95.5C 27,95.8333 26,96.1667 25,96.5C 22.0278,94.8211 19.3612,94.4878 17,95.5C 13.4943,94.2603 9.99433,93.2603 6.5,92.5C 5.91395,92.7093 5.41395,93.0426 5,93.5C 4.42094,92.0715 4.58761,90.7382 5.5,89.5C 11.643,86.2635 17.9764,83.2635 24.5,80.5 Z"/></g>
<g><path style="opacity:1" fill="#914da0" d="M -0.5,91.5 C 0.166667,91.5 0.833333,91.5 1.5,91.5C 0.401911,92.397 0.401911,93.2303 1.5,94C 7.8549,96.8453 14.1882,99.6786 20.5,102.5C 27.3293,106.749 34.3293,110.749 41.5,114.5C 47.3369,117.918 53.0036,121.584 58.5,125.5C 40.8019,120.933 23.8019,116.599 7.5,112.5C 4.83333,106.833 2.16667,101.167 -0.5,95.5C -0.5,94.1667 -0.5,92.8333 -0.5,91.5 Z"/></g>
<g><path style="opacity:1" fill="#b983c4" d="M 218.5,96.5 C 219.738,98.2143 220.405,100.214 220.5,102.5C 221.971,106.718 222.971,111.051 223.5,115.5C 222.878,116.627 222.045,117.627 221,118.5C 220.259,117.359 219.425,117.359 218.5,118.5C 216.575,118.163 215.075,116.83 214,114.5C 213.667,115.167 213.333,115.833 213,116.5C 211.434,117.061 210.101,116.394 209,114.5C 208.667,115.167 208.333,115.833 208,116.5C 205.815,115.682 203.315,114.682 200.5,113.5C 197.142,114.127 194.142,114.127 191.5,113.5C 191.5,106.833 191.5,100.167 191.5,93.5C 192.88,92.2935 194.047,92.6269 195,94.5C 197.235,93.7607 199.235,93.7607 201,94.5C 201.667,97.1667 202.333,97.1667 203,94.5C 203.667,95.8333 204.333,95.8333 205,94.5C 205.689,95.3567 206.522,96.0233 207.5,96.5C 208.906,95.3318 210.072,95.6652 211,97.5C 212.938,96.1398 214.604,96.4732 216,98.5C 216.995,97.9341 217.828,97.2674 218.5,96.5 Z"/></g>
<g><path style="opacity:1" fill="#a66db3" d="M 139.5,120.5 C 137.833,122.833 135.833,124.833 133.5,126.5C 125.915,125.025 118.248,123.691 110.5,122.5C 106.807,123.006 103.14,122.339 99.5,120.5C 94.0591,119.62 88.7257,119.62 83.5,120.5C 80.2869,119.573 77.1203,118.573 74,117.5C 73.4387,118.022 72.772,118.355 72,118.5C 61.8422,116.764 51.6755,115.431 41.5,114.5C 34.3293,110.749 27.3293,106.749 20.5,102.5C 20.7208,99.9028 21.2208,99.9028 22,102.5C 23.6667,102.167 25.3333,101.833 27,101.5C 28.9097,102.206 30.9097,103.206 33,104.5C 35.3333,104.167 37.6667,103.833 40,103.5C 41.3333,106.167 42.6667,106.167 44,103.5C 46.2408,106.227 48.9074,106.894 52,105.5C 54.2119,106.65 56.3786,107.65 58.5,108.5C 59.086,108.291 59.586,107.957 60,107.5C 64.3704,108.315 68.7038,109.315 73,110.5C 73.3333,110.167 73.6667,109.833 74,109.5C 77.7178,110.287 81.3845,111.287 85,112.5C 88.8937,112.353 92.727,112.353 96.5,112.5C 101.132,113.449 105.632,114.782 110,116.5C 111.062,115.903 112.228,115.57 113.5,115.5C 122.123,117.243 130.79,118.91 139.5,120.5 Z"/></g>
<g><path style="opacity:1" fill="#9421aa" d="M 242.5,97.5 C 243.875,104.289 244.542,111.289 244.5,118.5C 244.5,121.5 244.5,124.5 244.5,127.5C 238.833,127.5 233.167,127.5 227.5,127.5C 226.152,123.416 224.819,119.416 223.5,115.5C 222.971,111.051 221.971,106.718 220.5,102.5C 227.456,103.459 234.29,103.792 241,103.5C 242.319,101.75 242.819,99.7505 242.5,97.5 Z"/></g>
<g><path style="opacity:1" fill="#884298" d="M 7.5,112.5 C 23.8019,116.599 40.8019,120.933 58.5,125.5C 62.6829,127.757 67.0162,129.757 71.5,131.5C 80.1667,136.833 88.8333,142.167 97.5,147.5C 96.8501,147.804 96.1835,148.137 95.5,148.5C 67.9889,140.791 40.6556,133.791 13.5,127.5C 10.7344,122.883 8.7344,117.883 7.5,112.5 Z"/></g>
<g><path style="opacity:1" fill="#a064ae" d="M 41.5,114.5 C 51.6755,115.431 61.8422,116.764 72,118.5C 72.772,118.355 73.4387,118.022 74,117.5C 77.1203,118.573 80.2869,119.573 83.5,120.5C 88.7257,119.62 94.0591,119.62 99.5,120.5C 103.14,122.339 106.807,123.006 110.5,122.5C 118.248,123.691 125.915,125.025 133.5,126.5C 129.833,130.833 125.833,134.833 121.5,138.5C 118.811,137.962 116.144,137.295 113.5,136.5C 111.577,136.63 109.744,136.964 108,137.5C 107,136.833 106,136.167 105,135.5C 103.899,137.394 102.566,138.061 101,137.5C 100.308,136.975 99.8076,136.308 99.5,135.5C 96.6336,134.792 93.8003,134.125 91,133.5C 88.6667,133.833 86.3333,134.167 84,134.5C 83.3333,133.833 82.6667,133.167 82,132.5C 79.8891,132.577 77.8891,132.911 76,133.5C 74.6703,132.418 73.1703,131.751 71.5,131.5C 67.0162,129.757 62.6829,127.757 58.5,125.5C 53.0036,121.584 47.3369,117.918 41.5,114.5 Z"/></g>
<g><path style="opacity:1" fill="#ac72b9" d="M 223.5,115.5 C 224.819,119.416 226.152,123.416 227.5,127.5C 227.993,129.806 228.326,132.139 228.5,134.5C 228.391,140.452 225.891,141.786 221,138.5C 219.853,139.458 218.853,139.125 218,137.5C 216.533,137.419 214.866,137.753 213,138.5C 205.525,136.022 198.359,134.688 191.5,134.5C 191.5,127.5 191.5,120.5 191.5,113.5C 194.142,114.127 197.142,114.127 200.5,113.5C 203.315,114.682 205.815,115.682 208,116.5C 208.333,115.833 208.667,115.167 209,114.5C 210.101,116.394 211.434,117.061 213,116.5C 213.333,115.833 213.667,115.167 214,114.5C 215.075,116.83 216.575,118.163 218.5,118.5C 219.425,117.359 220.259,117.359 221,118.5C 222.045,117.627 222.878,116.627 223.5,115.5 Z"/></g>
<g><path style="opacity:1" fill="#823a92" d="M 97.5,147.5 C 100.85,149.196 104.183,150.863 107.5,152.5C 105.833,154.833 103.833,156.833 101.5,158.5C 73.0616,151.576 44.7283,144.243 16.5,136.5C 15.2134,133.594 14.2134,130.594 13.5,127.5C 40.6556,133.791 67.9889,140.791 95.5,148.5C 96.1835,148.137 96.8501,147.804 97.5,147.5 Z"/></g>
<g><path style="opacity:1" fill="#9859a7" d="M 71.5,131.5 C 73.1703,131.751 74.6703,132.418 76,133.5C 77.8891,132.911 79.8891,132.577 82,132.5C 82.6667,133.167 83.3333,133.833 84,134.5C 86.3333,134.167 88.6667,133.833 91,133.5C 93.8003,134.125 96.6336,134.792 99.5,135.5C 99.8076,136.308 100.308,136.975 101,137.5C 102.566,138.061 103.899,137.394 105,135.5C 106,136.167 107,136.833 108,137.5C 109.744,136.964 111.577,136.63 113.5,136.5C 116.144,137.295 118.811,137.962 121.5,138.5C 117.167,143.5 112.5,148.167 107.5,152.5C 104.183,150.863 100.85,149.196 97.5,147.5C 88.8333,142.167 80.1667,136.833 71.5,131.5 Z"/></g>
<g><path style="opacity:1" fill="#a469b1" d="M 173.5,139.5 C 171.738,139.357 170.071,139.691 168.5,140.5C 167.304,140.154 167.304,139.654 168.5,139C 167.101,138.405 165.768,138.572 164.5,139.5C 163.304,139.154 163.304,138.654 164.5,138C 160.558,137.131 156.558,136.631 152.5,136.5C 159.131,129.368 165.964,122.368 173,115.5C 173.5,123.493 173.666,131.493 173.5,139.5 Z"/></g>
<g><path style="opacity:1" fill="#8f26a3" d="M 244.5,118.5 C 245.815,125.629 246.482,132.963 246.5,140.5C 246.665,143.518 246.498,146.518 246,149.5C 245.333,148.833 244.667,148.167 244,147.5C 240.206,147.603 236.372,147.936 232.5,148.5C 231.456,143.644 230.123,138.978 228.5,134.5C 228.326,132.139 227.993,129.806 227.5,127.5C 233.167,127.5 238.833,127.5 244.5,127.5C 244.5,124.5 244.5,121.5 244.5,118.5 Z"/></g>
<g><path style="opacity:1" fill="#995ca6" d="M 152.5,136.5 C 156.558,136.631 160.558,137.131 164.5,138C 163.304,138.654 163.304,139.154 164.5,139.5C 165.768,138.572 167.101,138.405 168.5,139C 167.304,139.654 167.304,140.154 168.5,140.5C 170.071,139.691 171.738,139.357 173.5,139.5C 173.5,140.5 173.5,141.5 173.5,142.5C 167.158,142.334 160.825,142.5 154.5,143C 151.297,146.371 147.964,149.538 144.5,152.5C 143.178,152.33 142.011,152.663 141,153.5C 139.698,152.915 138.531,152.249 137.5,151.5C 142.167,146.167 147.167,141.167 152.5,136.5 Z"/></g>
<g><path style="opacity:1" fill="#a062ae" d="M 191.5,134.5 C 198.359,134.688 205.525,136.022 213,138.5C 214.866,137.753 216.533,137.419 218,137.5C 218.853,139.125 219.853,139.458 221,138.5C 225.891,141.786 228.391,140.452 228.5,134.5C 230.123,138.978 231.456,143.644 232.5,148.5C 233.038,150.117 233.371,151.784 233.5,153.5C 233.587,156.598 233.087,156.932 232,154.5C 231.692,155.308 231.192,155.975 230.5,156.5C 219.772,153.815 209.106,151.482 198.5,149.5C 196.145,150.295 193.812,149.961 191.5,148.5C 191.5,143.833 191.5,139.167 191.5,134.5 Z"/></g>
<g><path style="opacity:1" fill="#7b328c" d="M 16.5,136.5 C 44.7283,144.243 73.0616,151.576 101.5,158.5C 98.5,162.167 95.1667,165.5 91.5,168.5C 68.3402,162.627 45.3402,156.294 22.5,149.5C 20.2611,145.351 18.2611,141.018 16.5,136.5 Z"/></g>
<g><path style="opacity:1" fill="#9757a6" d="M 191.5,148.5 C 193.812,149.961 196.145,150.295 198.5,149.5C 209.106,151.482 219.772,153.815 230.5,156.5C 231.192,155.975 231.692,155.308 232,154.5C 233.087,156.932 233.587,156.598 233.5,153.5C 235.435,158.573 236.768,163.906 237.5,169.5C 235.54,168.862 233.707,168.862 232,169.5C 231.147,167.875 230.147,167.542 229,168.5C 226.392,167.701 223.726,166.701 221,165.5C 219.602,166.051 218.268,166.384 217,166.5C 208.526,163.819 200.026,162.153 191.5,161.5C 191.5,157.167 191.5,152.833 191.5,148.5 Z"/></g>
<g><path style="opacity:1" fill="#752986" d="M 22.5,149.5 C 45.3402,156.294 68.3402,162.627 91.5,168.5C 88.5,172.167 85.1667,175.5 81.5,178.5C 64.6556,173.703 47.6556,169.036 30.5,164.5C 29.8165,164.863 29.1499,165.196 28.5,165.5C 25.9402,160.38 23.9402,155.046 22.5,149.5 Z"/></g>
<g><path style="opacity:1" fill="#513455" d="M 140.5,157.5 C 151.5,158.167 162.5,158.833 173.5,159.5C 162.147,159.832 150.814,159.499 139.5,158.5C 139.624,157.893 139.957,157.56 140.5,157.5 Z"/></g>
<g><path style="opacity:1" fill="#8a2b9d" d="M 246.5,140.5 C 247.815,147.629 248.482,154.963 248.5,162.5C 248.5,165.167 248.5,167.833 248.5,170.5C 245.167,170.5 241.833,170.5 238.5,170.5C 238.5,169.833 238.167,169.5 237.5,169.5C 236.768,163.906 235.435,158.573 233.5,153.5C 233.371,151.784 233.038,150.117 232.5,148.5C 236.372,147.936 240.206,147.603 244,147.5C 244.667,148.167 245.333,148.833 246,149.5C 246.498,146.518 246.665,143.518 246.5,140.5 Z"/></g>
<g><path style="opacity:1" fill="#8b469a" d="M 137.5,151.5 C 138.531,152.249 139.698,152.915 141,153.5C 142.011,152.663 143.178,152.33 144.5,152.5C 143.167,154.167 141.833,155.833 140.5,157.5C 139.957,157.56 139.624,157.893 139.5,158.5C 150.814,159.499 162.147,159.832 173.5,159.5C 173.5,169.833 173.5,180.167 173.5,190.5C 171.95,189.559 170.284,188.893 168.5,188.5C 154.694,179.424 140.36,171.091 125.5,163.5C 129.167,159.167 133.167,155.167 137.5,151.5 Z"/></g>
<g><path style="opacity:1" fill="#8e4a9d" d="M 191.5,161.5 C 200.026,162.153 208.526,163.819 217,166.5C 218.268,166.384 219.602,166.051 221,165.5C 223.726,166.701 226.392,167.701 229,168.5C 230.147,167.542 231.147,167.875 232,169.5C 233.707,168.862 235.54,168.862 237.5,169.5C 238.167,169.5 238.5,169.833 238.5,170.5C 239.992,176.8 241.325,183.134 242.5,189.5C 225.356,184.983 208.356,180.983 191.5,177.5C 191.5,172.167 191.5,166.833 191.5,161.5 Z"/></g>
<g><path style="opacity:1" fill="#7b328c" d="M 125.5,163.5 C 140.36,171.091 154.694,179.424 168.5,188.5C 150.405,184.143 132.405,179.476 114.5,174.5C 117.833,170.5 121.5,166.833 125.5,163.5 Z"/></g>
<g><path style="opacity:1" fill="#6c1f7e" d="M 81.5,178.5 C 76.5,184.167 71.1667,189.5 65.5,194.5C 57.3369,192.007 49.0036,189.674 40.5,187.5C 39.2867,187.747 38.62,188.414 38.5,189.5C 34.6545,181.797 31.3212,173.797 28.5,165.5C 29.1499,165.196 29.8165,164.863 30.5,164.5C 47.6556,169.036 64.6556,173.703 81.5,178.5 Z"/></g>
<g><path style="opacity:1" fill="#742885" d="M 114.5,174.5 C 132.405,179.476 150.405,184.143 168.5,188.5C 170.284,188.893 171.95,189.559 173.5,190.5C 173.5,192.167 173.5,193.833 173.5,195.5C 176.5,195.5 179.5,195.5 182.5,195.5C 193.871,202.273 205.371,208.94 217,215.5C 217.945,215.095 218.612,214.428 219,213.5C 220,214.5 221,215.5 222,216.5C 222.667,213.833 223.333,213.833 224,216.5C 224.333,216.167 224.667,215.833 225,215.5C 226.067,216.191 227.234,216.691 228.5,217C 228.5,218.333 228.5,219.667 228.5,221C 230.329,221.273 231.829,222.107 233,223.5C 233.333,223.167 233.667,222.833 234,222.5C 236.667,223.833 239.333,225.167 242,226.5C 242.667,225.833 243.333,225.167 244,224.5C 245.831,226.855 247.997,228.188 250.5,228.5C 251.167,228.167 251.833,227.833 252.5,227.5C 254.129,230.266 254.795,233.266 254.5,236.5C 243.231,230.864 232.231,224.698 221.5,218C 181.512,208.255 141.846,197.755 102.5,186.5C 106.167,182.167 110.167,178.167 114.5,174.5 Z"/></g>
<g><path style="opacity:1" fill="#852e96" d="M 248.5,162.5 C 249.815,169.629 250.482,176.963 250.5,184.5C 250.665,187.85 250.498,191.183 250,194.5C 248.374,194.146 246.541,194.146 244.5,194.5C 243.976,192.694 243.309,191.028 242.5,189.5C 241.325,183.134 239.992,176.8 238.5,170.5C 241.833,170.5 245.167,170.5 248.5,170.5C 248.5,167.833 248.5,165.167 248.5,162.5 Z"/></g>
<g><path style="opacity:1" fill="#641477" d="M 65.5,194.5 C 67.6074,195.468 69.9407,195.802 72.5,195.5C 117.629,207.951 162.963,220.118 208.5,232C 207.944,232.383 207.611,232.883 207.5,233.5C 155.657,228.412 103.99,223.746 52.5,219.5C 50.1556,218.653 48.6556,216.986 48,214.5C 44.7283,206.182 41.5617,197.849 38.5,189.5C 38.62,188.414 39.2867,187.747 40.5,187.5C 49.0036,189.674 57.3369,192.007 65.5,194.5 Z"/></g>
<g><path style="opacity:1" fill="#843c94" d="M 191.5,177.5 C 208.356,180.983 225.356,184.983 242.5,189.5C 243.309,191.028 243.976,192.694 244.5,194.5C 244.317,196.936 244.984,199.103 246.5,201C 246.167,201.333 245.833,201.667 245.5,202C 246.357,202.689 247.023,203.522 247.5,204.5C 247.167,205.833 246.833,207.167 246.5,208.5C 228.182,203.338 209.848,198.338 191.5,193.5C 191.5,188.167 191.5,182.833 191.5,177.5 Z"/></g>
<g><path style="opacity:1" fill="#6c1d7e" d="M 102.5,186.5 C 141.846,197.755 181.512,208.255 221.5,218C 232.231,224.698 243.231,230.864 254.5,236.5C 254.5,236.833 254.5,237.167 254.5,237.5C 238.817,236.365 223.15,235.032 207.5,233.5C 207.611,232.883 207.944,232.383 208.5,232C 162.963,220.118 117.629,207.951 72.5,195.5C 79.5079,195.666 86.5079,195.5 93.5,195C 96.3694,191.962 99.3694,189.129 102.5,186.5 Z"/></g>
<g><path style="opacity:1" fill="#7b318b" d="M 250.5,184.5 C 252.107,198.84 253.773,213.173 255.5,227.5C 255.5,230.833 255.5,234.167 255.5,237.5C 255.167,237.5 254.833,237.5 254.5,237.5C 254.5,237.167 254.5,236.833 254.5,236.5C 254.795,233.266 254.129,230.266 252.5,227.5C 251.833,227.833 251.167,228.167 250.5,228.5C 247.997,228.188 245.831,226.855 244,224.5C 243.333,225.167 242.667,225.833 242,226.5C 239.333,225.167 236.667,223.833 234,222.5C 233.667,222.833 233.333,223.167 233,223.5C 231.829,222.107 230.329,221.273 228.5,221C 228.5,219.667 228.5,218.333 228.5,217C 227.234,216.691 226.067,216.191 225,215.5C 224.667,215.833 224.333,216.167 224,216.5C 223.333,213.833 222.667,213.833 222,216.5C 221,215.5 220,214.5 219,213.5C 218.612,214.428 217.945,215.095 217,215.5C 205.371,208.94 193.871,202.273 182.5,195.5C 186.012,196.055 189.012,195.388 191.5,193.5C 209.848,198.338 228.182,203.338 246.5,208.5C 246.833,207.167 247.167,205.833 247.5,204.5C 247.023,203.522 246.357,202.689 245.5,202C 245.833,201.667 246.167,201.333 246.5,201C 244.984,199.103 244.317,196.936 244.5,194.5C 246.541,194.146 248.374,194.146 250,194.5C 250.498,191.183 250.665,187.85 250.5,184.5 Z"/></g>
<g><path style="opacity:1" fill="#45154e" d="M 52.5,219.5 C 103.99,223.746 155.657,228.412 207.5,233.5C 223.15,235.032 238.817,236.365 254.5,237.5C 254.833,237.5 255.167,237.5 255.5,237.5C 255.5,237.833 255.5,238.167 255.5,238.5C 248.186,243.818 241.186,249.484 234.5,255.5C 232.5,255.5 230.5,255.5 228.5,255.5C 170.028,243.138 111.361,231.138 52.5,219.5 Z"/></g>
</svg>
